<?xml version="1.0" encoding="utf-8"?>

<!DOCTYPE svg PUBLIC "-//W3C//DTD SVG 1.1//EN" "http://www.w3.org/Graphics/SVG/1.1/DTD/svg11.dtd">
<svg version="1.1" id="Layer_1" xmlns="http://www.w3.org/2000/svg" xmlns:xlink="http://www.w3.org/1999/xlink" x="0px" y="0px"
	 viewBox="0 0 1634.014 1634.014" enable-background="new 0 0 1634.014 1634.014" xml:space="preserve">
<g>
	<path d="M634.617,676.198c-11.111-5.215-22.358-10.841-33.751-16.939c7.772,6.801,16.015,13.195,24.723,19.129
		C628.606,677.606,631.614,676.882,634.617,676.198z"/>
	<path d="M585.196,650.615c-6.366-3.599-12.772-7.338-19.219-11.218c6.967,16.5,12.737,34.227,17.143,53.168
		c4.494-1.838,8.98-3.565,13.457-5.181C591.92,675.487,588.101,663.206,585.196,650.615z"/>
	<path d="M583.075,941.644c-4.399,18.867-10.154,36.53-17.098,52.973c6.447-3.88,12.854-7.619,19.219-11.218
		c2.888-12.522,6.683-24.738,11.306-36.576C592.035,945.207,587.559,943.481,583.075,941.644z"/>
	<path d="M692.565,583.12c-18.94-4.406-36.668-10.176-53.167-17.143c3.88,6.447,7.619,12.853,11.218,19.219
		c12.59,2.904,24.871,6.724,36.77,11.381C689.001,592.1,690.728,587.614,692.565,583.12z"/>
	<path d="M806.314,690.289c3.608,1.549,7.173,3.174,10.694,4.875c3.52-1.701,7.085-3.326,10.693-4.875
		c2.794-4.015,5.691-7.941,8.691-11.772c-5.233-16.064-11.656-32.402-19.384-48.976c-7.729,16.573-14.152,32.912-19.384,48.976
		C800.623,682.348,803.519,686.274,806.314,690.289z"/>
	<path d="M659.259,600.867c6.098,11.392,11.724,22.639,16.939,33.751c0.684-3.003,1.407-6.012,2.19-9.028
		C672.454,616.881,666.06,608.638,659.259,600.867z"/>
	<path d="M676.198,634.617c-2.737,12.003-4.717,23.896-5.945,35.636c7.002-0.733,13.948-1.194,20.835-1.412
		C686.584,657.592,681.625,646.182,676.198,634.617z"/>
	<path d="M670.253,670.253c-11.74,1.229-23.633,3.209-35.635,5.945c11.565,5.427,22.975,10.386,34.223,14.89
		C669.059,684.201,669.52,677.255,670.253,670.253z"/>
	<path d="M634.268,957.981c12.131,2.788,24.151,4.801,36.015,6.048c-0.749-7.093-1.222-14.129-1.443-21.103
		C657.479,947.476,645.952,952.49,634.268,957.981z"/>
	<path d="M974.756,1033.148c-6.099-11.393-11.725-22.639-16.939-33.751c-0.685,3.003-1.409,6.012-2.191,9.028
		C961.56,1017.133,967.955,1025.376,974.756,1033.148z"/>
	<path d="M941.449,1050.894c18.94,4.406,36.668,10.176,53.168,17.143c-3.88-6.447-7.619-12.853-11.218-19.218
		c-12.591-2.904-24.872-6.724-36.77-11.381C945.013,1041.914,943.287,1046.4,941.449,1050.894z"/>
	<path d="M827.7,943.725c-3.469-1.489-6.897-3.05-10.284-4.68c-3.771,1.826-7.596,3.561-11.469,5.212
		c-2.68,3.831-5.456,7.578-8.324,11.24c5.232,16.064,11.656,32.402,19.384,48.976c7.729-16.573,14.152-32.912,19.384-48.976
		C833.391,951.667,830.495,947.74,827.7,943.725z"/>
	<path d="M999.397,957.817c11.111,5.214,22.359,10.84,33.751,16.939c-7.772-6.801-16.015-13.195-24.723-19.129
		C1005.408,956.409,1002.4,957.132,999.397,957.817z"/>
	<path d="M963.761,963.762c11.74-1.229,23.633-3.208,35.635-5.945c-11.565-5.427-22.975-10.386-34.223-14.89
		C964.955,949.813,964.494,956.759,963.761,963.762z"/>
	<path d="M957.817,999.397c2.736-12.002,4.716-23.896,5.945-35.635c-7.003,0.733-13.948,1.194-20.835,1.412
		C947.431,976.423,952.39,987.832,957.817,999.397z"/>
	<path d="M983.399,585.196c3.598-6.365,7.337-12.772,11.218-19.219c-16.443,6.943-34.106,12.698-52.973,17.098
		c1.837,4.484,3.563,8.96,5.18,13.427C958.661,591.879,970.877,588.085,983.399,585.196z"/>
	<path d="M670.284,964.03c1.23,11.653,3.198,23.456,5.914,35.367c5.383-11.469,10.305-22.786,14.779-33.945
		C684.137,965.228,677.238,964.761,670.284,964.03z"/>
	<path d="M600.866,974.756c11.273-6.035,22.404-11.605,33.402-16.774c-2.973-0.683-5.949-1.4-8.934-2.178
		C616.721,961.687,608.562,968.021,600.866,974.756z"/>
	<path d="M650.616,1048.818c-3.599,6.365-7.338,12.771-11.218,19.219c16.5-6.967,34.227-12.737,53.167-17.143
		c-1.838-4.494-3.564-8.98-5.18-13.457C675.487,1042.094,663.206,1045.914,650.616,1048.818z"/>
	<path d="M676.198,999.397c-5.215,11.111-10.841,22.358-16.939,33.751c6.801-7.772,13.195-16.015,19.129-24.723
		C677.605,1005.409,676.882,1002.4,676.198,999.397z"/>
	<path d="M703.827,930.187c-3.787,11.57-8.064,23.327-12.851,35.265c3.724,0.122,7.431,0.178,11.117,0.154
		c5.472-12.427,10.132-25.519,13.901-39.244C711.962,927.577,707.906,928.852,703.827,930.187z"/>
	<path d="M685.858,838.705c-2.44-0.743-4.887-1.514-7.341-2.314c-36.892,28.892-65.087,67.084-82.015,110.432
		c9.661,3.495,19.279,6.489,28.832,8.98c13.383-9.142,27.854-17.205,43.359-24.011C668.945,898.888,674.991,867.546,685.858,838.705
		z"/>
	<path d="M668.693,931.792c-0.029,3.691,0.028,7.406,0.147,11.135c11.842-4.741,23.507-8.983,34.987-12.74
		c1.335-4.079,2.61-8.135,3.825-12.167C694.033,921.76,681.034,926.375,668.693,931.792z"/>
	<path d="M817.007,927.042c-1.8,3.058-3.652,6.075-5.564,9.041c1.975,1.013,3.968,1.997,5.972,2.962
		c1.795-0.869,3.579-1.757,5.351-2.665C820.785,933.318,818.867,930.203,817.007,927.042z"/>
	<path d="M702.094,965.607c-6.735,15.298-14.692,29.589-23.706,42.819c2.493,9.613,5.487,19.29,8.997,29.012
		c43.267-16.936,81.389-45.102,110.238-81.94c-0.764-2.344-1.502-4.681-2.214-7.013C766.499,959.36,735.079,965.391,702.094,965.607
		z"/>
	<path d="M788.51,922.81c1.952,8.468,4.259,17.031,6.899,25.674c3.552-1.336,7.064-2.746,10.538-4.227
		c1.879-2.685,3.713-5.408,5.496-8.173C803.551,932.036,795.902,927.601,788.51,922.81z"/>
	<path d="M711.204,788.51c-8.36,1.928-16.814,4.202-25.346,6.799c1.398,3.71,2.875,7.379,4.431,11.005
		c2.514,1.749,5.058,3.463,7.642,5.129C701.978,803.551,706.414,795.902,711.204,788.51z"/>
	<path d="M668.693,702.222c-15.406-6.762-29.792-14.764-43.104-23.834c-9.613,2.493-19.291,5.488-29.013,8.997
		c16.936,43.268,45.103,81.389,81.94,110.238c2.454-0.799,4.901-1.57,7.341-2.314C674.991,766.468,668.945,735.127,668.693,702.222z
		"/>
	<path d="M703.827,703.827c-11.479-3.757-23.145-7.998-34.987-12.74c-0.119,3.729-0.176,7.443-0.147,11.135
		c12.341,5.417,25.34,10.033,38.959,13.772C706.438,711.962,705.162,707.906,703.827,703.827z"/>
	<path d="M711.204,845.504c-4.79-7.392-9.226-15.041-13.273-22.933c-2.584,1.666-5.128,3.38-7.642,5.129
		c-1.556,3.625-3.033,7.294-4.431,11.005C694.39,841.303,702.844,843.577,711.204,845.504z"/>
	<path d="M706.972,817.007c-3.058-1.8-6.075-3.651-9.042-5.564c-0.944,1.841-1.865,3.697-2.767,5.564
		c0.902,1.867,1.823,3.723,2.767,5.564C700.898,820.658,703.914,818.807,706.972,817.007z"/>
	<path d="M1050.894,692.566c4.406-18.941,10.176-36.668,17.143-53.168c-6.447,3.88-12.853,7.619-19.219,11.218
		c-2.904,12.59-6.723,24.872-11.381,36.77C1041.914,689.001,1046.4,690.728,1050.894,692.566z"/>
	<path d="M999.397,676.198c-11.911-2.715-23.715-4.684-35.367-5.914c0.731,6.954,1.198,13.853,1.423,20.693
		C976.611,686.503,987.928,681.58,999.397,676.198z"/>
	<path d="M1033.148,659.259c-11.392,6.098-22.64,11.724-33.751,16.939c3.003,0.685,6.012,1.408,9.028,2.19
		C1017.133,672.454,1025.376,666.06,1033.148,659.259z"/>
	<path d="M957.981,634.268c5.169-10.998,10.74-22.128,16.774-33.402c-6.734,7.696-13.068,15.854-18.953,24.468
		C956.581,628.32,957.299,631.296,957.981,634.268z"/>
	<path d="M964.03,670.284c-1.248-11.864-3.261-23.884-6.048-36.015c-5.491,11.684-10.506,23.21-15.054,34.572
		C949.901,669.062,956.937,669.535,964.03,670.284z"/>
	<path d="M838.705,948.156c-0.743,2.44-1.514,4.887-2.314,7.341c28.849,36.838,66.971,65.004,110.239,81.94
		c3.509-9.722,6.504-19.399,8.997-29.012c-9.07-13.312-17.072-27.698-23.834-43.104
		C898.888,965.069,867.546,959.023,838.705,948.156z"/>
	<path d="M931.792,965.321c3.691,0.029,7.406-0.029,11.135-0.147c-4.741-11.843-8.983-23.507-12.74-34.987
		c-4.079-1.335-8.135-2.61-12.167-3.825C921.759,939.982,926.375,952.98,931.792,965.321z"/>
	<path d="M845.382,923.321c-7.293,4.709-14.836,9.072-22.615,13.059c1.604,2.482,3.251,4.928,4.934,7.344
		c3.625,1.556,7.294,3.033,11.005,4.431C841.25,939.798,843.48,931.516,845.382,923.321z"/>
	<path d="M930.187,930.187c11.48,3.757,23.144,7.998,34.987,12.74c0.119-3.729,0.176-7.443,0.147-11.135
		c-12.341-5.417-25.34-10.033-38.958-13.772C927.577,922.052,928.852,926.108,930.187,930.187z"/>
	<path d="M965.321,931.792c15.406,6.762,29.792,14.764,43.104,23.834c9.613-2.493,19.29-5.488,29.012-8.997
		c-16.936-43.268-45.102-81.39-81.94-110.238c-2.454,0.799-4.9,1.571-7.34,2.314C959.023,867.546,965.069,898.888,965.321,931.792z"
		/>
	<path d="M944.257,805.947c-1.651,3.872-3.386,7.697-5.212,11.469c1.63,3.387,3.191,6.815,4.68,10.284
		c4.015,2.795,7.941,5.691,11.771,8.691c16.064-5.233,32.402-11.656,48.976-19.384c-16.574-7.728-32.912-14.151-48.976-19.384
		C951.835,800.491,948.088,803.267,944.257,805.947z"/>
	<path d="M690.289,827.7c1.549-3.608,3.174-7.173,4.875-10.693c-1.701-3.52-3.326-7.085-4.875-10.693
		c-4.015-2.795-7.941-5.691-11.772-8.691c-16.063,5.232-32.402,11.655-48.975,19.384c16.573,7.728,32.912,14.152,48.975,19.384
		C682.348,833.391,686.274,830.495,690.289,827.7z"/>
	<path d="M1098.843,1049.906c0.94-0.193,1.881-0.386,2.821-0.59c-6.412-15.226-12.271-30.164-17.596-44.811
		c-5.371-3.395-10.715-6.689-16.032-9.889C1076.606,1014.912,1086.978,1033.353,1098.843,1049.906z"/>
	<path d="M1041.969,817.007c0.449,6.743,1.044,13.587,1.775,20.523c28.078,16.262,56.688,36.267,85.601,60.336
		c30.036-21.297,59.894-48.059,88.998-80.858c-29.104-32.799-58.963-59.561-88.999-80.858c-28.912,24.069-57.522,44.073-85.6,60.336
		C1043.014,803.42,1042.418,810.264,1041.969,817.007z"/>
	<path d="M1041.068,836.009c-1.108,38.513,2.438,73.68,9.826,105.44c3.868-1.582,7.742-3.238,11.62-4.987
		c-9.355-34.886-15.498-67.876-18.77-98.932C1042.851,837.012,1041.961,836.519,1041.068,836.009z"/>
	<path d="M1300.24,546.126c14.734-20.844,29.435-42.885,44.073-66.206c-24.625-3.509-49.397-3.542-73.6-0.162
		c-14.3,13.867-28.473,27.067-42.512,39.618C1252.563,524.764,1276.783,533.603,1300.24,546.126z"/>
	<path d="M1084.068,629.508c-8.518,23.428-15.672,46.111-21.554,68.044c22.216,10.021,44.571,22.813,66.83,38.596
		c31.522-26.241,63.405-57.346,95.359-93.765c-28.904-21.77-58.842-37.589-88.896-48.06
		C1118.301,607.06,1101.049,618.777,1084.068,629.508z"/>
	<path d="M1004.506,1084.068c14.647,5.325,29.585,11.184,44.81,17.597c0.204-0.941,0.396-1.881,0.59-2.822
		c-16.553-11.865-34.994-22.237-55.289-30.806C997.817,1073.353,1001.111,1078.697,1004.506,1084.068z"/>
	<path d="M836.009,1041.068c0.511,0.892,1.003,1.783,1.521,2.676c31.056,3.272,64.047,9.415,98.932,18.77
		c1.749-3.878,3.404-7.752,4.987-11.621C909.689,1043.506,874.522,1039.96,836.009,1041.068z"/>
	<path d="M1105.991,574.584c-1.468,3.385-2.912,6.758-4.326,10.114c11.364,2.458,22.761,5.66,34.142,9.626
		c30.071-21.878,60.895-46.784,92.394-74.948c-17.49-3.868-35.05-5.955-52.454-6.331
		C1149.693,528.59,1125.999,549.143,1105.991,574.584z"/>
	<path d="M817.007,1004.473c-5.634,12.082-11.97,24.288-19.002,36.595c6.249,0.18,12.578,0.474,19.002,0.902
		c6.424-0.428,12.753-0.722,19.001-0.902C828.976,1028.76,822.641,1016.554,817.007,1004.473z"/>
	<path d="M1055.337,1055.337c12.33-0.547,24.781-1.944,37.289-4.225c-11.024-21.611-25.13-41.711-42.092-59.637
		C1054.625,1012.135,1056.304,1033.542,1055.337,1055.337z"/>
	<path d="M991.476,1050.534c17.925,16.962,38.025,31.068,59.636,42.092c2.281-12.508,3.677-24.96,4.225-37.289
		C1033.542,1056.304,1012.135,1054.625,991.476,1050.534z"/>
	<path d="M1048.818,983.399c6.366,3.599,12.772,7.338,19.219,11.218c-6.967-16.5-12.737-34.227-17.143-53.168
		c-4.494,1.838-8.98,3.564-13.457,5.181C1042.095,958.527,1045.914,970.809,1048.818,983.399z"/>
	<path d="M546.126,333.774c-20.844-14.735-42.885-29.435-66.206-44.073c-3.509,24.625-3.542,49.397-0.162,73.6
		c13.867,14.3,27.067,28.473,39.618,42.511C524.764,381.452,533.603,357.231,546.126,333.774z"/>
	<path d="M629.509,549.946c23.428,8.518,46.11,15.672,68.044,21.554c10.021-22.216,22.813-44.571,38.596-66.831
		c-26.241-31.522-57.346-63.404-93.765-95.358c-21.77,28.904-37.588,58.841-48.06,88.896
		C607.061,515.714,618.777,532.965,629.509,549.946z"/>
	<path d="M817.007,592.045c6.743-0.449,13.586-1.044,20.522-1.775c16.283-28.116,36.318-56.763,60.43-85.715
		c-21.314-30.017-48.089-59.855-80.89-88.94c-32.828,29.121-59.61,58.998-80.921,89.053c24.069,28.913,44.074,57.522,60.336,85.601
		C803.42,591.001,810.264,591.596,817.007,592.045z"/>
	<path d="M574.584,528.023c3.385,1.468,6.758,2.913,10.114,4.326c2.458-11.365,5.661-22.761,9.626-34.142
		c-21.878-30.071-46.784-60.894-74.948-92.394c-3.868,17.49-5.955,35.05-6.331,52.454
		C528.59,484.322,549.143,508.015,574.584,528.023z"/>
	<path d="M584.108,535.171c-3.246-2.327-6.423-4.709-9.525-7.148c-19.25-8.347-38.952-17.575-59.104-27.723
		c0.855,6.179,1.922,12.312,3.208,18.388c22.362,4.733,43.949,12.362,64.214,22.7C583.279,539.317,583.682,537.245,584.108,535.171z
		"/>
	<path d="M1049.906,535.171c0.426,2.074,0.829,4.146,1.206,6.217c20.265-10.337,41.852-17.967,64.214-22.7
		c1.286-6.076,2.354-12.209,3.208-18.388c-20.152,10.148-39.855,19.376-59.104,27.723
		C1056.329,530.462,1053.153,532.844,1049.906,535.171z"/>
	<path d="M1039.691,498.207c3.965,11.381,7.167,22.778,9.625,34.142c3.357-1.414,6.73-2.858,10.115-4.326
		c25.441-20.008,45.993-43.702,61.538-69.757c-0.376-17.403-2.462-34.964-6.33-52.454
		C1086.474,437.313,1061.569,468.136,1039.691,498.207z"/>
	<path d="M1098.843,584.108c2.328-3.247,4.709-6.423,7.148-9.525c8.348-19.249,17.574-38.952,27.723-59.104
		c-6.178,0.855-12.312,1.922-18.387,3.209c-4.733,22.362-12.363,43.949-22.7,64.214
		C1094.697,583.28,1096.769,583.682,1098.843,584.108z"/>
	<path d="M1004.506,549.946c10.731-16.98,22.448-34.232,35.185-51.739c-10.472-30.055-26.29-59.992-48.06-88.896
		c-36.375,31.915-67.45,63.759-93.671,95.244c15.819,22.279,28.642,44.656,38.69,66.894
		C958.525,565.577,981.145,558.439,1004.506,549.946z"/>
	<path d="M1154.257,363.302c3.38-24.203,3.347-48.975-0.162-73.6c-23.322,14.637-45.363,29.338-66.206,44.073
		c12.523,23.456,21.362,47.677,26.751,72.039C1127.19,391.774,1140.39,377.602,1154.257,363.302z"/>
	<path d="M817.007,629.542c5.634-12.081,11.969-24.288,19.002-36.595c-6.248-0.18-12.578-0.473-19.002-0.901
		c-6.424,0.428-12.754,0.722-19.002,0.901C805.037,605.254,811.373,617.46,817.007,629.542z"/>
	<path d="M1049.906,535.171c-0.193-0.94-0.386-1.881-0.59-2.822c-15.226,6.412-30.163,12.271-44.81,17.596
		c-3.394,5.371-6.689,10.715-9.889,16.032C1014.912,557.408,1033.353,547.036,1049.906,535.171z"/>
	<path d="M629.509,549.946c-14.647-5.325-29.585-11.184-44.81-17.596c-0.204,0.941-0.396,1.881-0.59,2.822
		c16.553,11.865,34.994,22.237,55.29,30.806C636.198,560.661,632.903,555.317,629.509,549.946z"/>
	<path d="M798.005,592.947c-0.51-0.893-1.003-1.783-1.52-2.677c-31.056-3.272-64.046-9.415-98.932-18.77
		c-1.749,3.879-3.405,7.752-4.987,11.621C724.325,590.508,759.492,594.054,798.005,592.947z"/>
	<path d="M941.644,583.075c-1.586-3.871-3.241-7.746-4.994-11.626c-34.955,9.384-68.007,15.543-99.12,18.821
		c-0.517,0.894-1.01,1.784-1.52,2.677C874.6,594.057,909.832,590.494,941.644,583.075z"/>
	<path d="M1041.068,798.005c0.893-0.51,1.783-1.003,2.677-1.521c3.272-31.056,9.415-64.046,18.77-98.932
		c-3.879-1.75-7.752-3.405-11.62-4.987C1043.506,724.326,1039.96,759.492,1041.068,798.005z"/>
	<path d="M1055.337,578.677c-0.547-12.329-1.944-24.781-4.225-37.289c-21.611,11.024-41.711,25.131-59.636,42.092
		C1012.135,579.39,1033.542,577.71,1055.337,578.677z"/>
	<path d="M1004.473,817.007c12.081,5.634,24.288,11.969,36.595,19.002c0.18-6.248,0.473-12.578,0.901-19.002
		c-0.429-6.424-0.722-12.754-0.901-19.002C1028.76,805.038,1016.554,811.373,1004.473,817.007z"/>
	<path d="M1050.534,642.538c16.961-17.925,31.068-38.025,42.092-59.636c-12.509-2.281-24.96-3.678-37.289-4.225
		C1056.304,600.472,1054.625,621.88,1050.534,642.538z"/>
	<path d="M1084.068,629.508c5.326-14.647,11.184-29.584,17.596-44.81c-0.941-0.203-1.881-0.396-2.822-0.59
		c-11.865,16.553-22.237,34.994-30.806,55.289C1073.353,636.198,1078.697,632.903,1084.068,629.508z"/>
	<path d="M583.481,991.476c-16.962,17.925-31.068,38.025-42.093,59.636c12.509,2.281,24.96,3.678,37.289,4.225
		C577.71,1033.543,579.39,1012.135,583.481,991.476z"/>
	<path d="M592.947,836.009c-0.893,0.51-1.783,1.003-2.677,1.521c-3.279,31.112-9.438,64.165-18.822,99.12
		c3.881,1.753,7.756,3.408,11.627,4.994C590.493,909.833,594.056,874.6,592.947,836.009z"/>
	<path d="M549.946,1004.506c-5.325,14.647-11.184,29.585-17.596,44.811c0.941,0.204,1.881,0.396,2.821,0.59
		c11.865-16.553,22.237-34.994,30.807-55.289C560.661,997.817,555.318,1001.111,549.946,1004.506z"/>
	<path d="M584.108,1098.843c0.193,0.94,0.386,1.881,0.59,2.822c15.226-6.412,30.163-12.271,44.81-17.597
		c3.394-5.371,6.689-10.715,9.889-16.032C619.103,1076.606,600.662,1086.978,584.108,1098.843z"/>
	<path d="M578.677,1055.337c0.547,12.329,1.945,24.781,4.225,37.289c21.612-11.024,41.711-25.131,59.637-42.092
		C621.88,1054.625,600.471,1056.304,578.677,1055.337z"/>
	<path d="M692.565,1050.894c1.582,3.869,3.237,7.742,4.987,11.621c34.886-9.355,67.876-15.498,98.932-18.77
		c0.518-0.894,1.011-1.784,1.52-2.676C759.492,1039.96,724.325,1043.506,692.565,1050.894z"/>
	<path d="M578.677,578.677c-12.329,0.547-24.781,1.944-37.289,4.225c11.024,21.611,25.131,41.711,42.092,59.636
		C579.39,621.88,577.71,600.472,578.677,578.677z"/>
	<path d="M535.172,584.108c-0.941,0.193-1.881,0.386-2.822,0.59c6.412,15.226,12.271,30.164,17.596,44.81
		c5.372,3.395,10.715,6.689,16.032,9.889C557.408,619.102,547.036,600.662,535.172,584.108z"/>
	<path d="M642.539,583.48c-17.925-16.962-38.025-31.068-59.637-42.092c-2.28,12.508-3.677,24.96-4.225,37.289
		C600.472,577.71,621.88,579.39,642.539,583.48z"/>
	<path d="M629.541,817.007c-12.082-5.634-24.288-11.969-36.594-19.002c-0.18,6.248-0.474,12.578-0.902,19.002
		c0.428,6.424,0.722,12.754,0.902,19.002C605.254,828.977,617.46,822.641,629.541,817.007z"/>
	<path d="M583.12,692.566c-3.868,1.582-7.742,3.237-11.62,4.987c9.355,34.886,15.498,67.876,18.77,98.932
		c0.894,0.518,1.784,1.011,2.677,1.521C594.055,759.492,590.508,724.326,583.12,692.566z"/>
	<path d="M1448.263,174.59c-7.337-1.859-14.628-3.673-21.868-5.434c8.496,4.182,17.035,8.433,25.651,12.811
		C1450.803,179.519,1449.523,177.049,1448.263,174.59z"/>
	<path d="M1050.534,991.476c-0.535-2.704-1.099-5.399-1.716-8.077c-5.249-2.968-10.477-5.864-15.67-8.643
		C1039.238,980.085,1045.036,985.665,1050.534,991.476z"/>
	<path d="M991.476,1050.534c-5.81-5.498-11.391-11.296-16.72-17.386c2.779,5.193,5.675,10.421,8.643,15.671
		C986.076,1049.436,988.772,1049.999,991.476,1050.534z"/>
	<path d="M583.48,642.538c0.535,2.704,1.098,5.4,1.716,8.077c5.249,2.968,10.477,5.864,15.67,8.643
		C594.776,653.929,588.978,648.349,583.48,642.538z"/>
	<path d="M642.539,583.48c5.81,5.498,11.391,11.296,16.72,17.386c-2.78-5.193-5.676-10.421-8.643-15.67
		C647.938,584.579,645.243,584.016,642.539,583.48z"/>
	<path d="M642.539,1050.534c2.704-0.535,5.4-1.098,8.077-1.716c2.968-5.249,5.864-10.478,8.643-15.67
		C653.929,1039.238,648.349,1045.036,642.539,1050.534z"/>
	<path d="M583.481,991.476c5.498-5.81,11.295-11.391,17.386-16.72c-5.193,2.78-10.421,5.675-15.67,8.643
		C584.579,986.076,584.015,988.772,583.481,991.476z"/>
	<path d="M991.476,583.48c-2.704,0.535-5.4,1.098-8.077,1.716c-2.968,5.249-5.864,10.478-8.644,15.67
		C980.085,594.776,985.666,588.978,991.476,583.48z"/>
	<path d="M854.292,787.68c0.012-2.615-0.016-5.246-0.071-7.886c-2.641-0.055-5.271-0.083-7.886-0.071
		c0.518,2.145,1.014,4.302,1.484,6.473C849.99,786.665,852.147,787.161,854.292,787.68z"/>
	<path d="M854.292,787.68c-0.047,9.971-0.585,19.75-1.577,29.328c0.992,9.578,1.531,19.357,1.577,29.327
		c18.612-4.497,36.256-10.813,52.793-18.716c0.123-3.513,0.285-7.046,0.51-10.612c-0.224-3.565-0.386-7.099-0.51-10.612
		C890.548,798.492,872.905,792.177,854.292,787.68z"/>
	<path d="M846.335,854.292c2.615,0.012,5.245-0.016,7.886-0.071c0.055-2.641,0.083-5.271,0.071-7.886
		c-2.146,0.518-4.303,1.014-6.474,1.484C847.349,849.99,846.853,852.147,846.335,854.292z"/>
	<path d="M907.085,806.395c0.424,0.203,0.85,0.404,1.273,0.609c0.614-6.92,1.417-13.934,2.419-21.04
		c-1.277-0.249-2.555-0.5-3.827-0.734C906.79,792.174,906.834,799.23,907.085,806.395z"/>
	<path d="M848.784,727.064c-0.233-1.273-0.484-2.551-0.733-3.828c-7.106,1.002-14.12,1.806-21.04,2.42
		c0.205,0.423,0.406,0.849,0.609,1.273C834.784,727.18,841.84,727.224,848.784,727.064z"/>
	<path d="M906.951,785.23c0.137-5.943,0.417-11.807,0.845-17.585c-12.215-15.316-26.111-29.212-41.427-41.427
		c-5.778,0.428-11.642,0.708-17.585,0.846c3.315,18.055,5.08,35.655,5.437,52.73C871.295,780.15,888.895,781.916,906.951,785.23z"/>
	<path d="M1050.534,642.538c-5.498,5.81-11.296,11.391-17.386,16.72c5.193-2.78,10.421-5.676,15.67-8.643
		C1049.436,647.938,1049.999,645.242,1050.534,642.538z"/>
	<path d="M852.715,817.007c-1.09-10.524-2.73-20.803-4.896-30.812c-10.009-2.166-20.287-3.807-30.811-4.896
		c-10.525,1.09-20.803,2.731-30.812,4.896c-2.166,10.009-3.806,20.287-4.896,30.812c1.09,10.524,2.73,20.803,4.896,30.811
		c10.009,2.166,20.287,3.807,30.812,4.896c10.524-1.09,20.802-2.731,30.811-4.896C849.984,837.81,851.625,827.531,852.715,817.007z"
		/>
	<path d="M787.68,779.722c-2.615-0.012-5.246,0.016-7.887,0.071c-0.055,2.641-0.083,5.271-0.071,7.886
		c2.146-0.518,4.303-1.014,6.474-1.484C786.665,784.025,787.162,781.868,787.68,779.722z"/>
	<path d="M779.722,846.335c-0.012,2.615,0.016,5.246,0.071,7.886c2.641,0.055,5.271,0.084,7.887,0.071
		c-0.518-2.145-1.015-4.303-1.484-6.474C784.025,847.349,781.868,846.853,779.722,846.335z"/>
	<path d="M214.749,1468.37c2.718,0.052,5.431,0.1,8.133,0.142c-5.065-1.195-10.15-2.411-15.263-3.654
		C209.994,1466.027,212.382,1467.216,214.749,1468.37z"/>
	<path d="M1403.595,1470.294c2.499-0.58,5.027-1.19,7.538-1.782c-5.12,0.08-10.207,0.138-15.273,0.184
		C1398.429,1469.232,1401.01,1469.764,1403.595,1470.294z"/>
	<path d="M230.419,1470.294c2.585-0.53,5.167-1.062,7.736-1.598c-5.066-0.046-10.153-0.104-15.273-0.184
		C225.392,1469.105,227.92,1469.714,230.419,1470.294z"/>
	<path d="M1448.263,1459.424c1.26-2.458,2.54-4.929,3.784-7.377c-8.616,4.377-17.155,8.629-25.651,12.811
		C1433.635,1463.097,1440.927,1461.283,1448.263,1459.424z"/>
	<path d="M1419.266,1468.37c2.366-1.154,4.754-2.344,7.13-3.512c-5.113,1.244-10.199,2.459-15.263,3.654
		C1413.835,1468.47,1416.548,1468.422,1419.266,1468.37z"/>
	<path d="M165.644,1419.266c1.154,2.366,2.344,4.754,3.512,7.13c-1.244-5.113-2.459-10.198-3.654-15.263
		C165.544,1413.835,165.593,1416.548,165.644,1419.266z"/>
	<path d="M185.751,1459.424c7.337,1.859,14.628,3.673,21.868,5.434c-8.496-4.182-17.035-8.433-25.651-12.811
		C183.212,1454.495,184.491,1456.966,185.751,1459.424z"/>
	<path d="M163.72,1403.595c0.58,2.499,1.19,5.027,1.782,7.537c-0.08-5.12-0.138-10.207-0.184-15.273
		C164.782,1398.429,164.25,1401.01,163.72,1403.595z"/>
	<path d="M1459.424,1448.263c1.859-7.336,3.673-14.628,5.434-21.867c-4.182,8.496-8.433,17.035-12.811,25.651
		C1454.495,1450.803,1456.966,1449.523,1459.424,1448.263z"/>
	<path d="M174.59,1448.263c2.458,1.26,4.929,2.54,7.377,3.784c-4.377-8.616-8.629-17.155-12.811-25.651
		C170.917,1433.635,172.732,1440.927,174.59,1448.263z"/>
	<path d="M230.524,1504.475h62.301c-14.734-6.433-29.662-13.17-44.791-20.226C242.27,1490.963,236.455,1497.698,230.524,1504.475z"
		/>
	<path d="M129.54,1403.491c6.777-5.932,13.511-11.747,20.226-17.51c-7.057-15.129-13.793-30.058-20.226-44.792V1403.491z"/>
	<path d="M1403.491,1504.475c-5.931-6.777-11.747-13.511-17.51-20.226c-15.129,7.057-30.058,13.793-44.792,20.226H1403.491z"/>
	<path d="M163.719,230.42c0.531,2.585,1.062,5.167,1.598,7.736c0.046-5.066,0.104-10.153,0.184-15.274
		C164.91,225.393,164.3,227.921,163.719,230.42z"/>
	<path d="M129.54,230.524v62.301c6.433-14.734,13.17-29.662,20.226-44.791C143.051,242.27,136.317,236.455,129.54,230.524z"/>
	<path d="M1403.491,129.54h-62.301c14.734,6.433,29.662,13.17,44.792,20.226C1391.744,143.051,1397.559,136.317,1403.491,129.54z"/>
	<path d="M1470.295,1403.595c-0.531-2.585-1.063-5.167-1.599-7.736c-0.046,5.066-0.104,10.154-0.185,15.275
		C1469.105,1408.623,1469.714,1406.095,1470.295,1403.595z"/>
	<path d="M1504.474,230.524c-6.777,5.932-13.511,11.747-20.226,17.51c7.057,15.129,13.794,30.058,20.226,44.791V230.524z"/>
	<path d="M230.524,129.54c5.932,6.777,11.747,13.511,17.51,20.226c15.129-7.057,30.058-13.793,44.791-20.226H230.524z"/>
	<path d="M1468.37,1419.266c0.051-2.717,0.1-5.43,0.142-8.132c-1.195,5.065-2.411,10.149-3.654,15.262
		C1466.026,1424.02,1467.216,1421.632,1468.37,1419.266z"/>
	<path d="M1504.474,1403.491v-62.301c-6.432,14.734-13.169,29.662-20.226,44.792
		C1490.963,1391.744,1497.697,1397.559,1504.474,1403.491z"/>
	<path d="M168.24,251.933c0.49,2.28,0.975,4.575,1.47,6.843c1.407,1.849,2.813,3.685,4.218,5.522
		C172.03,260.199,170.133,256.081,168.24,251.933z"/>
	<path d="M168.241,1382.079c1.893-4.147,3.789-8.265,5.687-12.362c-1.405,1.836-2.81,3.672-4.217,5.521
		C169.217,1377.505,168.732,1379.799,168.241,1382.079z"/>
	<path d="M1470.295,230.419c-0.581-2.499-1.19-5.027-1.783-7.538c0.08,5.121,0.138,10.208,0.184,15.275
		C1469.232,235.586,1469.764,233.004,1470.295,230.419z"/>
	<path d="M1382.079,1465.773c-4.147-1.893-8.265-3.789-12.362-5.687c1.836,1.405,3.672,2.81,5.521,4.217
		C1377.505,1464.798,1379.799,1465.283,1382.079,1465.773z"/>
	<path d="M1465.773,1382.08c-0.49-2.28-0.975-4.574-1.47-6.842c-1.407-1.849-2.812-3.685-4.217-5.521
		C1461.984,1373.814,1463.88,1377.932,1465.773,1382.08z"/>
	<path d="M251.935,1465.773c2.28-0.49,4.574-0.975,6.841-1.47c1.849-1.407,3.685-2.812,5.521-4.217
		C260.2,1461.984,256.083,1463.88,251.935,1465.773z"/>
	<path d="M1465.774,251.934c-1.893,4.148-3.789,8.265-5.688,12.363c1.405-1.836,2.811-3.672,4.217-5.521
		C1464.797,256.509,1465.283,254.214,1465.774,251.934z"/>
	<path d="M1382.08,168.241c-2.28,0.49-4.575,0.975-6.842,1.47c-1.849,1.407-3.685,2.812-5.521,4.218
		C1373.815,172.03,1377.932,170.134,1382.08,168.241z"/>
	<path d="M165.644,214.749c-0.052,2.718-0.1,5.43-0.142,8.133c1.195-5.065,2.411-10.15,3.654-15.263
		C167.988,209.994,166.799,212.382,165.644,214.749z"/>
	<path d="M251.932,168.24c4.148,1.893,8.267,3.79,12.365,5.688c-1.837-1.406-3.673-2.811-5.522-4.218
		C256.507,169.216,254.213,168.73,251.932,168.24z"/>
	<path d="M230.42,163.719c-2.499,0.581-5.028,1.19-7.539,1.783c5.122-0.08,10.209-0.139,15.276-0.184
		C235.587,164.782,233.005,164.25,230.42,163.719z"/>
	<path d="M185.751,174.59c-1.26,2.458-2.54,4.929-3.784,7.377c8.616-4.377,17.155-8.629,25.651-12.811
		C200.379,170.917,193.088,172.731,185.751,174.59z"/>
	<path d="M214.749,165.644c-2.366,1.154-4.754,2.343-7.13,3.512c5.113-1.244,10.198-2.459,15.262-3.654
		C220.178,165.545,217.466,165.593,214.749,165.644z"/>
	<path d="M174.59,185.751c-1.859,7.336-3.673,14.628-5.434,21.868c4.182-8.496,8.433-17.035,12.811-25.651
		C179.519,183.211,177.049,184.491,174.59,185.751z"/>
	<path d="M1459.424,185.751c-2.458-1.26-4.929-2.54-7.377-3.784c4.377,8.616,8.629,17.155,12.811,25.651
		C1463.097,200.38,1461.282,193.088,1459.424,185.751z"/>
	<path d="M1403.595,163.72c-2.585,0.531-5.167,1.062-7.736,1.599c5.066,0.046,10.154,0.104,15.274,0.184
		C1408.622,164.91,1406.095,164.3,1403.595,163.72z"/>
	<path d="M535.172,584.108c2.074-0.426,4.145-0.829,6.216-1.206c-10.338-20.265-17.967-41.852-22.7-64.214
		c-6.076-1.286-12.209-2.354-18.387-3.209c10.149,20.152,19.375,39.855,27.723,59.104
		C530.462,577.685,532.844,580.862,535.172,584.108z"/>
	<path d="M1468.37,214.748c-1.154-2.366-2.344-4.754-3.512-7.13c1.244,5.113,2.459,10.198,3.655,15.262
		C1468.47,220.178,1468.421,217.466,1468.37,214.748z"/>
	<path d="M1419.266,165.644c-2.718-0.052-5.43-0.1-8.133-0.142c5.065,1.195,10.149,2.411,15.262,3.654
		C1424.02,167.988,1421.632,166.799,1419.266,165.644z"/>
	<path d="M922.811,788.51c-3.225-4.976-6.612-9.832-10.155-14.563c-0.685,4.033-1.317,8.041-1.878,12.017
		C914.769,786.742,918.777,787.58,922.811,788.51z"/>
	<path d="M726.419,817.007c-0.209-3.311-0.465-6.647-0.764-10.003c-6.398,3.1-12.629,6.439-18.683,10.003
		c6.055,3.564,12.285,6.903,18.683,10.003C725.954,823.654,726.211,820.319,726.419,817.007z"/>
	<path d="M915.166,915.166c3.78,0.882,7.507,1.841,11.197,2.854c-5.943-19.732-10.446-38.895-13.622-57.458
		c-1.608,2.141-3.237,4.264-4.908,6.353C909.106,883.717,911.585,899.816,915.166,915.166z"/>
	<path d="M845.382,923.321c5.192-3.352,10.253-6.882,15.18-10.581c-4.2-0.718-8.373-1.379-12.51-1.962
		C847.24,914.937,846.358,919.117,845.382,923.321z"/>
	<path d="M923.321,845.382c8.194-1.901,16.477-4.132,24.835-6.677c-1.398-3.71-2.875-7.379-4.431-11.004
		c-2.416-1.682-4.863-3.329-7.345-4.934C932.394,830.545,928.031,838.088,923.321,845.382z"/>
	<path d="M912.741,860.561c3.698-4.926,7.228-9.988,10.58-15.18c-4.205,0.976-8.384,1.858-12.543,2.669
		C911.362,852.188,912.022,856.362,912.741,860.561z"/>
	<path d="M721.359,860.067c-3.181,18.717-7.713,38.046-13.707,57.953c3.689-1.013,7.416-1.972,11.196-2.854
		c3.62-15.515,6.11-31.798,7.37-48.797C724.565,864.296,722.95,862.191,721.359,860.067z"/>
	<path d="M711.204,845.504c3.225,4.976,6.612,9.832,10.156,14.563c0.685-4.033,1.316-8.041,1.877-12.016
		C719.245,847.272,715.237,846.434,711.204,845.504z"/>
	<path d="M718.848,915.166c-0.881,3.78-1.84,7.507-2.854,11.196c19.907-5.995,39.236-10.527,57.953-13.707
		c-2.125-1.591-4.229-3.206-6.302-4.859C750.646,909.056,734.363,911.547,718.848,915.166z"/>
	<path d="M773.948,912.655c4.731,3.543,9.587,6.931,14.563,10.155c-0.93-4.033-1.768-8.041-2.546-12.032
		C781.988,911.339,777.98,911.97,773.948,912.655z"/>
	<path d="M817.007,907.595c-3.312,0.209-6.648,0.466-10.004,0.763c3.1,6.399,6.44,12.629,10.004,18.684
		c3.564-6.055,6.903-12.285,10.003-18.684C823.654,908.061,820.319,907.804,817.007,907.595z"/>
	<path d="M860.561,912.741c18.563,3.176,37.727,7.68,57.459,13.622c-1.013-3.689-1.972-7.416-2.854-11.196
		c-15.35-3.581-31.448-6.06-48.251-7.333C864.825,909.504,862.702,911.133,860.561,912.741z"/>
	<path d="M927.042,817.007c3.161,1.86,6.276,3.778,9.339,5.759c0.908-1.771,1.795-3.555,2.665-5.35
		c-0.964-2.005-1.949-3.998-2.962-5.973C933.117,813.356,930.1,815.208,927.042,817.007z"/>
	<path d="M817.007,706.972c1.799-3.058,3.651-6.075,5.563-9.042c-1.841-0.944-3.696-1.865-5.563-2.767
		c-1.867,0.902-3.722,1.823-5.564,2.767C813.356,700.898,815.207,703.915,817.007,706.972z"/>
	<path d="M845.504,711.204c-1.928-8.36-4.202-16.814-6.799-25.346c-3.71,1.398-7.379,2.875-11.005,4.431
		c-1.75,2.514-3.463,5.058-5.13,7.642C830.463,701.978,838.113,706.413,845.504,711.204z"/>
	<path d="M931.792,668.693c6.806-15.505,14.869-29.975,24.011-43.358c-2.491-9.554-5.485-19.172-8.98-28.833
		c-43.348,16.927-81.54,45.122-110.432,82.015c0.8,2.454,1.571,4.9,2.314,7.341C867.546,674.991,898.888,668.945,931.792,668.693z"
		/>
	<path d="M788.51,711.204c7.392-4.79,15.041-9.226,22.933-13.273c-1.666-2.584-3.38-5.128-5.13-7.642
		c-3.626-1.556-7.294-3.033-11.005-4.431C792.712,694.389,790.438,702.843,788.51,711.204z"/>
	<path d="M795.309,685.858c0.743-2.44,1.515-4.887,2.314-7.341c-28.849-36.838-66.971-65.004-110.238-81.94
		c-3.51,9.722-6.505,19.399-8.997,29.012c9.07,13.312,17.072,27.698,23.834,43.104C735.127,668.945,766.469,674.991,795.309,685.858
		z"/>
	<path d="M787.68,779.722c9.97,0.046,19.749,0.585,29.327,1.577c9.578-0.992,19.356-1.531,29.327-1.577
		c-4.497-18.613-10.812-36.256-18.715-52.793c-3.514-0.123-7.047-0.285-10.612-0.51c-3.566,0.225-7.099,0.387-10.612,0.51
		C798.492,743.466,792.177,761.109,787.68,779.722z"/>
	<path d="M922.811,788.51c4.79,7.392,9.226,15.041,13.273,22.933c2.765-1.783,5.489-3.617,8.174-5.496
		c1.481-3.474,2.891-6.987,4.227-10.538C939.841,792.769,931.278,790.462,922.811,788.51z"/>
	<path d="M948.484,795.409c2.332,0.712,4.669,1.451,7.013,2.214c36.838-28.849,65.005-66.97,81.94-110.238
		c-9.722-3.509-19.399-6.504-29.012-8.997c-13.229,9.014-27.521,16.971-42.818,23.706
		C965.391,735.079,959.359,766.499,948.484,795.409z"/>
	<path d="M930.187,703.827c3.757-11.479,7.999-23.144,12.74-34.987c-3.729-0.119-7.443-0.176-11.135-0.147
		c-5.417,12.341-10.033,25.34-13.772,38.959C922.052,706.438,926.108,705.162,930.187,703.827z"/>
	<path d="M965.607,702.094c0.024-3.686-0.032-7.394-0.154-11.117c-11.938,4.786-23.696,9.064-35.266,12.851
		c-1.335,4.079-2.61,8.135-3.824,12.167C940.087,712.226,953.18,707.565,965.607,702.094z"/>
	<path d="M785.23,906.95c0.233,1.273,0.485,2.551,0.733,3.828c7.106-1.002,14.12-1.806,21.04-2.42
		c-0.205-0.423-0.406-0.849-0.608-1.273C799.23,906.834,792.174,906.79,785.23,906.95z"/>
	<path d="M727.064,848.784c-0.137,5.943-0.417,11.807-0.846,17.585c12.215,15.316,26.111,29.211,41.427,41.427
		c5.778-0.428,11.642-0.708,17.585-0.846c-3.315-18.055-5.08-35.655-5.437-52.73C762.72,853.865,745.119,852.098,727.064,848.784z"
		/>
	<path d="M846.335,854.292c-9.971-0.046-19.75-0.585-29.327-1.577c-9.578,0.992-19.357,1.531-29.327,1.577
		c4.497,18.613,10.812,36.256,18.715,52.793c3.513,0.123,7.046,0.285,10.612,0.51c3.565-0.225,7.098-0.387,10.612-0.51
		C835.522,890.548,841.837,872.905,846.335,854.292z"/>
	<path d="M848.784,906.95c6.13,0.141,12.177,0.432,18.131,0.883c15.109-12.086,28.832-25.809,40.919-40.919
		c-0.451-5.954-0.742-12.001-0.883-18.13c-18.055,3.314-35.656,5.08-52.73,5.437C853.865,871.295,852.099,888.895,848.784,906.95z"
		/>
	<path d="M827.619,907.085c-0.203,0.424-0.404,0.85-0.609,1.273c6.92,0.614,13.934,1.418,21.04,2.42
		c0.249-1.277,0.5-2.555,0.733-3.828C841.84,906.79,834.784,906.834,827.619,907.085z"/>
	<path d="M727.064,785.23c-1.273,0.234-2.551,0.485-3.828,0.734c1.002,7.106,1.806,14.12,2.419,21.04
		c0.424-0.205,0.849-0.406,1.273-0.609C727.18,799.23,727.224,792.174,727.064,785.23z"/>
	<path d="M785.23,727.064c-5.943-0.137-11.807-0.417-17.585-0.846c-15.316,12.215-29.212,26.111-41.427,41.427
		c0.429,5.778,0.709,11.642,0.846,17.585c18.055-3.314,35.656-5.081,52.729-5.437C780.149,762.719,781.916,745.119,785.23,727.064z"
		/>
	<path d="M806.395,726.929c0.203-0.424,0.403-0.85,0.608-1.273c-6.92-0.614-13.934-1.418-21.04-2.42
		c-0.249,1.277-0.5,2.555-0.733,3.828C792.174,727.224,799.23,727.18,806.395,726.929z"/>
	<path d="M726.929,827.619c-0.424-0.203-0.85-0.404-1.273-0.609c-0.614,6.92-1.417,13.934-2.419,21.04
		c1.277,0.249,2.555,0.5,3.828,0.734C727.224,841.84,727.18,834.784,726.929,827.619z"/>
	<path d="M779.722,846.335c0.047-9.971,0.585-19.75,1.577-29.327c-0.992-9.578-1.531-19.357-1.577-29.328
		c-18.612,4.497-36.256,10.813-52.793,18.716c-0.123,3.513-0.284,7.047-0.51,10.612c0.225,3.565,0.387,7.099,0.51,10.612
		C743.466,835.522,761.11,841.838,779.722,846.335z"/>
	<path d="M773.948,721.359c-18.717-3.18-38.046-7.713-57.953-13.707c1.013,3.689,1.972,7.416,2.854,11.196
		c15.515,3.619,31.798,6.11,48.797,7.37C769.718,724.565,771.823,722.95,773.948,721.359z"/>
	<path d="M788.51,711.204c-4.976,3.224-9.832,6.612-14.563,10.155c4.032,0.685,8.041,1.316,12.016,1.877
		C786.742,719.245,787.58,715.237,788.51,711.204z"/>
	<path d="M721.359,773.947c-3.544,4.731-6.931,9.587-10.156,14.563c4.033-0.93,8.042-1.768,12.033-2.546
		C722.675,781.988,722.044,777.98,721.359,773.947z"/>
	<path d="M860.067,721.359c-4.731-3.543-9.588-6.931-14.563-10.155c0.93,4.033,1.768,8.042,2.546,12.032
		C852.026,722.675,856.034,722.044,860.067,721.359z"/>
	<path d="M718.848,718.848c-3.78-0.882-7.507-1.841-11.196-2.854c5.994,19.907,10.527,39.235,13.707,57.953
		c1.591-2.124,3.206-4.229,4.859-6.302C724.958,750.646,722.468,734.363,718.848,718.848z"/>
	<path d="M912.656,773.947c3.18-18.717,7.713-38.046,13.707-57.953c-3.689,1.013-7.417,1.972-11.197,2.854
		c-3.619,15.515-6.11,31.798-7.37,48.797C909.449,769.718,911.064,771.823,912.656,773.947z"/>
	<path d="M907.595,817.007c0.209,3.312,0.466,6.647,0.764,10.003c6.398-3.1,12.629-6.439,18.683-10.003
		c-6.055-3.564-12.285-6.903-18.683-10.003C908.061,810.36,907.804,813.696,907.595,817.007z"/>
	<path d="M702.222,668.693c-3.691-0.029-7.406,0.029-11.135,0.147c4.741,11.843,8.983,23.507,12.74,34.987
		c4.079,1.335,8.135,2.61,12.167,3.825C712.254,694.032,707.639,681.034,702.222,668.693z"/>
	<path d="M906.951,848.784c1.273-0.234,2.55-0.485,3.827-0.734c-1.002-7.107-1.806-14.12-2.419-21.04
		c-0.423,0.205-0.849,0.406-1.273,0.608C906.834,834.784,906.79,841.84,906.951,848.784z"/>
	<path d="M915.166,718.848c0.882-3.78,1.84-7.507,2.854-11.196c-19.907,5.994-39.236,10.527-57.952,13.707
		c2.124,1.591,4.229,3.206,6.302,4.859C883.369,724.958,899.651,722.468,915.166,718.848z"/>
	<path d="M817.007,726.419c3.311-0.209,6.647-0.466,10.003-0.763c-3.1-6.399-6.44-12.629-10.003-18.683
		c-3.564,6.055-6.904,12.285-10.004,18.683C810.36,725.954,813.695,726.21,817.007,726.419z"/>
	<path d="M176.846,1457.168c0.877,3.407,1.788,6.847,2.686,10.275c3.506,0.117,7.028,0.245,10.509,0.346
		c-1.45-2.8-2.862-5.578-4.291-8.365C182.783,1458.672,179.831,1457.936,176.846,1457.168z"/>
	<path d="M161.967,1395.92c-1.216,2.708-2.429,5.449-3.643,8.18c1.223,2.558,2.475,5.134,3.716,7.703
		c0.555-2.75,1.118-5.475,1.679-8.207C163.122,1401.023,162.552,1398.479,161.967,1395.92z"/>
	<path d="M182.875,1114.967c-18.766-11.656-36.684-25.77-53.336-42.394v144.795c6.612,50.715,16.046,104.504,28.589,161.452
		c2.37-2.017,4.728-4.003,7.09-6C165.327,1277.045,171.604,1191.341,182.875,1114.967z"/>
	<path d="M165.231,1381.134c-1.695,2.241-3.394,4.51-5.091,6.77c0.598,2.661,1.216,5.341,1.827,8.016
		c1.092-2.434,2.188-4.841,3.282-7.258C165.235,1386.138,165.238,1383.644,165.231,1381.134z"/>
	<path d="M162.041,1411.802c-1.808,8.966-3.576,18.048-5.317,27.206c3.17,1.659,6.348,3.331,9.502,4.964
		c-0.242-8.313-0.426-16.532-0.581-24.707C164.426,1416.767,163.243,1414.29,162.041,1411.802z"/>
	<path d="M166.226,1443.973c0.101,3.481,0.229,7.003,0.346,10.509c3.427,0.898,6.868,1.81,10.275,2.687
		c-0.768-2.984-1.504-5.937-2.256-8.905C171.803,1446.834,169.025,1445.422,166.226,1443.973z"/>
	<path d="M182.875,519.047c-11.271-76.374-17.548-162.078-17.657-257.854c-2.362-1.996-4.72-3.982-7.09-5.999
		c-12.542,56.948-21.977,110.737-28.589,161.452v144.795C146.192,544.818,164.109,530.703,182.875,519.047z"/>
	<path d="M129.54,565.657v-4.216c-4.096,4.089-8.114,8.331-12.05,12.722c-1.12,65.492,3.24,124.439,12.05,177.215v-18.155V565.657z"
		/>
	<path d="M165.249,245.353c-1.094-2.417-2.19-4.824-3.282-7.258c-0.612,2.674-1.23,5.355-1.827,8.015
		c1.698,2.26,3.396,4.529,5.091,6.77C165.238,250.37,165.235,247.876,165.249,245.353z"/>
	<path d="M129.54,1068.357V900.791v-18.155c-8.809,52.776-13.17,111.723-12.05,177.215c3.936,4.392,7.954,8.634,12.05,12.722
		V1068.357z"/>
	<path d="M129.54,751.379v131.257c3.846-23.041,8.53-44.919,13.993-65.629C138.07,796.297,133.386,774.42,129.54,751.379z"/>
	<path d="M1381.134,1468.783c2.241,1.695,4.51,3.394,6.77,5.091c2.661-0.598,5.341-1.216,8.016-1.827
		c-2.434-1.092-4.841-2.188-7.258-3.282C1386.138,1468.78,1383.644,1468.777,1381.134,1468.783z"/>
	<path d="M1114.967,1451.139c-11.656,18.766-25.77,36.684-42.394,53.336h144.794c50.715-6.612,104.505-16.046,161.453-28.589
		c-2.017-2.37-4.003-4.728-6-7.09C1277.045,1468.687,1191.341,1462.41,1114.967,1451.139z"/>
	<path d="M1068.357,1504.475H900.791h-18.155c52.777,8.809,111.724,13.17,177.216,12.05c4.392-3.936,8.634-7.954,12.722-12.05
		H1068.357z"/>
	<path d="M751.378,1504.475h131.257c-23.041-3.846-44.919-8.53-65.628-13.993C796.298,1495.945,774.419,1500.629,751.378,1504.475z"
		/>
	<path d="M1395.919,1472.047c2.709,1.216,5.45,2.429,8.18,3.643c2.558-1.223,5.134-2.476,7.703-3.716
		c-2.75-0.555-5.475-1.118-8.207-1.679C1401.023,1470.893,1398.479,1471.462,1395.919,1472.047z"/>
	<path d="M245.353,1468.765c-2.417,1.094-4.824,2.19-7.258,3.282c2.674,0.612,5.355,1.23,8.016,1.827
		c2.26-1.698,4.529-3.396,6.77-5.091C250.37,1468.777,247.876,1468.78,245.353,1468.765z"/>
	<path d="M222.212,1471.974c2.569,1.241,5.145,2.493,7.703,3.716c2.73-1.214,5.471-2.426,8.18-3.643
		c-2.56-0.585-5.103-1.154-7.676-1.752C227.687,1470.855,224.962,1471.419,222.212,1471.974z"/>
	<path d="M190.042,1467.789c1.632,3.154,3.305,6.332,4.964,9.502c9.158-1.741,18.24-3.509,27.206-5.317
		c-2.488-1.202-4.965-2.385-7.463-3.604C206.574,1468.215,198.355,1468.031,190.042,1467.789z"/>
	<path d="M519.047,1451.139c-76.374,11.271-162.078,17.548-257.854,17.656c-1.996,2.362-3.982,4.72-5.999,7.09
		c56.948,12.542,110.737,21.977,161.452,28.589h144.795C544.818,1487.823,530.703,1469.905,519.047,1451.139z"/>
	<path d="M565.657,1504.475h-4.216c4.088,4.096,8.33,8.114,12.722,12.05c65.492,1.12,124.44-3.24,177.215-12.05h-18.155H565.657z"/>
	<path d="M1504.474,565.657v167.567v18.155c8.81-52.776,13.17-111.723,12.05-177.215c-3.937-4.392-7.954-8.634-12.05-12.722V565.657
		z"/>
	<path d="M1443.973,166.226c-1.633-3.154-3.305-6.332-4.964-9.502c-9.159,1.741-18.24,3.509-27.207,5.318
		c2.488,1.202,4.965,2.385,7.464,3.604C1427.44,165.8,1435.659,165.983,1443.973,166.226z"/>
	<path d="M1411.802,162.041c-2.569-1.241-5.145-2.493-7.703-3.716c-2.73,1.214-5.471,2.426-8.18,3.642
		c2.56,0.585,5.104,1.155,7.676,1.752C1406.327,163.159,1409.052,162.595,1411.802,162.041z"/>
	<path d="M1457.168,176.846c-0.877-3.407-1.788-6.847-2.687-10.275c-3.506-0.117-7.027-0.245-10.508-0.346
		c1.449,2.8,2.861,5.577,4.29,8.365C1451.231,175.342,1454.184,176.078,1457.168,176.846z"/>
	<path d="M1388.662,165.249c2.417-1.094,4.824-2.19,7.258-3.282c-2.674-0.611-5.355-1.229-8.016-1.827
		c-2.26,1.698-4.528,3.396-6.77,5.091C1383.644,165.238,1386.138,165.235,1388.662,165.249z"/>
	<path d="M1114.967,182.875c76.374-11.271,162.078-17.548,257.854-17.657c1.996-2.362,3.982-4.72,6-7.091
		c-56.948-12.542-110.737-21.977-161.453-28.589h-144.794C1089.197,146.192,1103.311,164.109,1114.967,182.875z"/>
	<path d="M1468.783,252.88c1.696-2.241,3.394-4.51,5.092-6.77c-0.598-2.661-1.216-5.341-1.827-8.015
		c-1.093,2.434-2.189,4.841-3.282,7.258C1468.78,247.876,1468.776,250.37,1468.783,252.88z"/>
	<path d="M1451.139,519.047c18.766,11.656,36.684,25.77,53.335,42.394V416.647c-6.612-50.715-16.046-104.504-28.588-161.452
		c-2.37,2.017-4.729,4.003-7.091,6C1468.687,356.969,1462.41,442.674,1451.139,519.047z"/>
	<path d="M1472.047,238.095c1.216-2.709,2.428-5.45,3.642-8.18c-1.223-2.558-2.475-5.134-3.716-7.703
		c-0.554,2.75-1.118,5.475-1.678,8.207C1470.892,232.991,1471.462,235.535,1472.047,238.095z"/>
	<path d="M1467.789,190.042c-0.102-3.481-0.229-7.003-0.346-10.509c-3.428-0.898-6.868-1.81-10.274-2.687
		c0.768,2.984,1.504,5.937,2.256,8.905C1462.211,187.18,1464.989,188.592,1467.789,190.042z"/>
	<path d="M1471.974,222.212c1.808-8.966,3.576-18.048,5.317-27.207c-3.17-1.659-6.348-3.331-9.502-4.964
		c0.242,8.313,0.425,16.533,0.581,24.707C1469.588,217.247,1470.772,219.724,1471.974,222.212z"/>
	<path d="M190.042,166.226c-3.481,0.102-7.003,0.229-10.509,0.346c-0.898,3.427-1.809,6.868-2.686,10.274
		c2.984-0.768,5.936-1.504,8.905-2.256C187.18,171.803,188.592,169.025,190.042,166.226z"/>
	<path d="M238.095,161.967c-2.709-1.216-5.45-2.429-8.18-3.642c-2.558,1.223-5.134,2.475-7.703,3.716
		c2.75,0.555,5.475,1.118,8.207,1.679C232.992,163.122,235.535,162.552,238.095,161.967z"/>
	<path d="M222.212,162.041c-8.966-1.808-18.048-3.576-27.206-5.318c-1.659,3.17-3.332,6.348-4.964,9.502
		c8.313-0.242,16.532-0.426,24.707-0.581C217.247,164.426,219.724,163.243,222.212,162.041z"/>
	<path d="M1411.802,1471.974c8.967,1.808,18.048,3.576,27.207,5.317c1.659-3.17,3.331-6.348,4.964-9.502
		c-8.314,0.242-16.533,0.426-24.707,0.581C1416.767,1469.588,1414.29,1470.772,1411.802,1471.974z"/>
	<path d="M166.226,190.042c-3.154,1.633-6.332,3.305-9.502,4.964c1.741,9.158,3.509,18.24,5.317,27.207
		c1.202-2.488,2.385-4.965,3.604-7.463C165.8,206.574,165.983,198.355,166.226,190.042z"/>
	<path d="M162.041,222.212c-1.24,2.569-2.493,5.145-3.716,7.703c1.214,2.73,2.426,5.471,3.643,8.18
		c0.585-2.56,1.154-5.103,1.752-7.675C163.159,227.687,162.595,224.962,162.041,222.212z"/>
	<path d="M176.847,176.846c-3.407,0.877-6.848,1.788-10.275,2.687c-0.117,3.506-0.245,7.028-0.346,10.509
		c2.8-1.449,5.578-2.862,8.365-4.29C175.342,182.783,176.078,179.831,176.847,176.846z"/>
	<path d="M882.635,129.54H751.378c23.041,3.846,44.92,8.53,65.629,13.993C837.717,138.069,859.594,133.386,882.635,129.54z"/>
	<path d="M565.657,129.54h167.566h18.155c-52.775-8.809-111.723-13.17-177.215-12.05c-4.392,3.936-8.634,7.954-12.722,12.05H565.657
		z"/>
	<path d="M1068.357,129.54h4.216c-4.088-4.096-8.33-8.113-12.722-12.05c-65.492-1.12-124.439,3.24-177.216,12.05h18.155H1068.357z"
		/>
	<path d="M252.88,165.231c-2.241-1.695-4.51-3.394-6.77-5.092c-2.661,0.598-5.341,1.216-8.016,1.827
		c2.434,1.093,4.841,2.188,7.258,3.282C247.876,165.235,250.37,165.238,252.88,165.231z"/>
	<path d="M519.047,182.875c11.656-18.766,25.77-36.684,42.394-53.336H416.646c-50.715,6.612-104.504,16.046-161.452,28.589
		c2.017,2.37,4.003,4.728,5.999,7.091C356.97,165.328,442.674,171.604,519.047,182.875z"/>
	<path d="M154.417,1451.27c-0.928,5.015-1.855,10.035-2.762,15.107c5.152,0.228,10.259,0.427,15.36,0.623
		c-0.161-4.193-0.304-8.359-0.443-12.518C162.532,1453.423,158.486,1452.358,154.417,1451.27z"/>
	<path d="M145.612,1433.165c-2.012,4.679-4.023,9.363-6.028,14.102c4.971,1.362,9.905,2.685,14.834,4.003
		c0.761-4.109,1.532-8.189,2.306-12.261C153.028,1437.075,149.329,1435.135,145.612,1433.165z"/>
	<path d="M154.325,1395.656c-7.396,9.923-14.812,20.014-22.251,30.294c4.533,2.438,9.037,4.83,13.538,7.215
		c4.223-9.822,8.462-19.504,12.713-29.065C156.974,1401.274,155.654,1398.468,154.325,1395.656z"/>
	<path d="M182.744,1479.597c1.318,4.929,2.641,9.862,4.003,14.834c4.739-2.005,9.423-4.016,14.102-6.028
		c-1.97-3.717-3.911-7.417-5.844-11.112C190.934,1478.065,186.854,1478.836,182.744,1479.597z"/>
	<path d="M167.015,1467c0.196,5.101,0.395,10.207,0.623,15.36c5.072-0.908,10.092-1.834,15.107-2.762
		c-1.088-4.069-2.153-8.115-3.212-12.154C175.374,1467.304,171.208,1467.16,167.015,1467z"/>
	<path d="M145.612,200.85c-4.501,2.385-9.005,4.777-13.538,7.215c7.439,10.281,14.856,20.371,22.251,30.294
		c1.329-2.812,2.649-5.618,4-8.444C154.073,220.353,149.834,210.672,145.612,200.85z"/>
	<path d="M200.85,1488.403c2.385,4.501,4.777,9.005,7.215,13.538c10.281-7.439,20.371-14.856,30.294-22.251
		c-2.812-1.329-5.618-2.649-8.444-4C220.354,1479.941,210.672,1484.18,200.85,1488.403z"/>
	<path d="M154.417,182.744c-4.929,1.318-9.863,2.641-14.834,4.003c2.005,4.739,4.016,9.423,6.028,14.102
		c3.717-1.97,7.417-3.911,11.112-5.844C155.949,190.934,155.178,186.854,154.417,182.744z"/>
	<path d="M129.54,416.647V398.09V292.825C34.921,509.53,6.863,683.54,20.088,817.007c10.534-106.313,47.257-186.898,97.403-242.844
		C118.325,525.336,122.209,472.869,129.54,416.647z"/>
	<path d="M129.54,1217.368c-7.33-56.222-11.215-108.689-12.05-157.517c-50.145-55.945-86.868-136.531-97.403-242.844
		C6.863,950.474,34.921,1124.484,129.54,1341.189v-105.265V1217.368z"/>
	<path d="M158.128,1378.82c-2.779,2.366-5.572,4.766-8.362,7.161c1.498,3.211,3.033,6.446,4.559,9.675
		c1.941-2.604,3.877-5.172,5.815-7.752C159.457,1384.863,158.794,1381.843,158.128,1378.82z"/>
	<path d="M160.14,246.11c-1.938-2.58-3.874-5.147-5.815-7.752c-1.526,3.229-3.061,6.464-4.559,9.675
		c2.79,2.395,5.583,4.795,8.362,7.161C158.794,252.171,159.457,249.151,160.14,246.11z"/>
	<path d="M1479.597,1451.27c4.929-1.318,9.862-2.641,14.834-4.003c-2.005-4.739-4.016-9.423-6.029-14.102
		c-3.717,1.97-7.416,3.911-11.111,5.844C1478.065,1443.08,1478.836,1447.16,1479.597,1451.27z"/>
	<path d="M1466.999,1467c5.101-0.196,10.207-0.395,15.36-0.623c-0.908-5.072-1.835-10.092-2.763-15.107
		c-4.069,1.088-8.115,2.153-12.155,3.212C1467.303,1458.64,1467.16,1462.806,1466.999,1467z"/>
	<path d="M1451.27,1479.597c5.015,0.928,10.035,1.854,15.107,2.762c0.228-5.152,0.427-10.259,0.623-15.36
		c-4.193,0.161-8.359,0.304-12.518,0.443C1453.423,1471.482,1452.359,1475.528,1451.27,1479.597z"/>
	<path d="M1488.402,1433.165c4.501-2.385,9.006-4.777,13.538-7.215c-7.438-10.281-14.855-20.371-22.251-30.294
		c-1.329,2.812-2.649,5.618-4,8.444C1479.941,1413.661,1484.18,1423.342,1488.402,1433.165z"/>
	<path d="M1473.875,1387.904c1.938,2.58,3.874,5.148,5.815,7.752c1.526-3.229,3.061-6.464,4.559-9.675
		c-2.791-2.395-5.583-4.795-8.363-7.161C1475.22,1381.843,1474.558,1384.863,1473.875,1387.904z"/>
	<path d="M1613.927,817.007c-10.534,106.313-47.257,186.898-97.402,242.844c-0.835,48.828-4.72,101.294-12.05,157.517v18.556
		v105.265C1599.094,1124.484,1627.151,950.474,1613.927,817.007z"/>
	<path d="M1217.367,1504.475c-56.222,7.33-108.689,11.215-157.516,12.05c-55.945,50.145-136.531,86.868-242.844,97.403
		c133.467,13.224,307.476-14.833,524.182-109.452h-105.265H1217.367z"/>
	<path d="M416.646,1504.475H398.09H292.825c216.706,94.619,390.715,122.677,524.182,109.452
		c-106.313-10.534-186.899-47.257-242.844-97.403C525.336,1515.689,472.869,1511.805,416.646,1504.475z"/>
	<path d="M246.11,1473.874c-2.58,1.938-5.147,3.874-7.752,5.815c3.229,1.526,6.464,3.061,9.675,4.559
		c2.395-2.79,4.795-5.583,7.161-8.362C252.171,1475.22,249.151,1474.558,246.11,1473.874z"/>
	<path d="M1378.82,1475.886c2.366,2.78,4.766,5.572,7.161,8.362c3.212-1.498,6.446-3.033,9.675-4.559
		c-2.605-1.941-5.172-3.877-7.752-5.815C1384.863,1474.558,1381.843,1475.22,1378.82,1475.886z"/>
	<path d="M1433.164,1488.403c4.68,2.012,9.363,4.023,14.102,6.028c1.362-4.971,2.685-9.905,4.003-14.834
		c-4.109-0.761-8.189-1.532-12.261-2.306C1437.075,1480.986,1435.134,1484.686,1433.164,1488.403z"/>
	<path d="M1395.656,1479.689c9.923,7.396,20.013,14.812,30.294,22.251c2.438-4.532,4.83-9.037,7.214-13.538
		c-9.822-4.223-19.504-8.462-29.065-12.713C1401.274,1477.041,1398.468,1478.36,1395.656,1479.689z"/>
	<path d="M1504.474,416.647c7.33,56.223,11.215,108.689,12.05,157.517c50.145,55.945,86.868,136.531,97.402,242.844
		c13.225-133.467-14.832-307.477-109.452-524.182V398.09V416.647z"/>
	<path d="M1475.886,255.194c2.779-2.366,5.572-4.766,8.362-7.161c-1.498-3.211-3.033-6.446-4.559-9.675
		c-1.941,2.604-3.877,5.172-5.815,7.751C1474.557,249.151,1475.22,252.171,1475.886,255.194z"/>
	<path d="M1504.474,882.636v18.155v167.567v4.216c4.096-4.089,8.114-8.331,12.05-12.722
		C1517.644,994.359,1513.284,935.412,1504.474,882.636z"/>
	<path d="M1488.402,200.85c2.012-4.679,4.023-9.364,6.029-14.102c-4.972-1.362-9.905-2.685-14.834-4.003
		c-0.761,4.11-1.532,8.19-2.306,12.261C1480.987,196.939,1484.686,198.88,1488.402,200.85z"/>
	<path d="M1451.139,1114.967c11.271,76.374,17.548,162.078,17.656,257.854c2.362,1.996,4.721,3.982,7.091,6
		c12.542-56.948,21.976-110.737,28.588-161.452v-144.795C1487.823,1089.197,1469.905,1103.311,1451.139,1114.967z"/>
	<path d="M1479.689,238.359c7.395-9.923,14.812-20.013,22.251-30.294c-4.532-2.438-9.036-4.83-13.538-7.215
		c-4.222,9.822-8.461,19.503-12.713,29.065C1477.041,232.74,1478.361,235.547,1479.689,238.359z"/>
	<path d="M1468.765,1388.662c1.094,2.417,2.189,4.824,3.282,7.258c0.611-2.674,1.229-5.355,1.827-8.016
		c-1.698-2.26-3.396-4.528-5.092-6.77C1468.776,1383.644,1468.78,1386.138,1468.765,1388.662z"/>
	<path d="M1457.168,1457.168c3.406-0.877,6.847-1.788,10.274-2.686c0.117-3.505,0.245-7.028,0.346-10.509
		c-2.8,1.449-5.577,2.862-8.365,4.29C1458.672,1451.231,1457.936,1454.184,1457.168,1457.168z"/>
	<path d="M1467.789,1443.973c3.154-1.632,6.332-3.305,9.502-4.964c-1.741-9.158-3.509-18.24-5.317-27.206
		c-1.202,2.488-2.385,4.965-3.604,7.463C1468.214,1427.44,1468.031,1435.659,1467.789,1443.973z"/>
	<path d="M1443.973,1467.789c3.481-0.101,7.003-0.229,10.508-0.346c0.898-3.427,1.81-6.868,2.687-10.275
		c-2.985,0.768-5.937,1.504-8.905,2.256C1446.834,1462.211,1445.422,1464.989,1443.973,1467.789z"/>
	<path d="M1471.974,1411.802c1.241-2.569,2.493-5.145,3.716-7.703c-1.214-2.73-2.426-5.471-3.642-8.18
		c-0.585,2.56-1.155,5.103-1.752,7.676C1470.855,1406.327,1471.419,1409.052,1471.974,1411.802z"/>
	<path d="M1479.597,182.744c0.928-5.015,1.854-10.035,2.763-15.106c-5.153-0.228-10.259-0.427-15.36-0.623
		c0.161,4.193,0.304,8.359,0.443,12.518C1471.482,180.591,1475.528,181.656,1479.597,182.744z"/>
	<path d="M238.358,154.325c-9.923-7.396-20.013-14.812-30.294-22.251c-2.438,4.532-4.83,9.037-7.215,13.538
		c9.822,4.223,19.503,8.461,29.065,12.713C232.74,156.974,235.546,155.654,238.358,154.325z"/>
	<path d="M255.194,158.128c-2.366-2.78-4.766-5.572-7.161-8.362c-3.211,1.498-6.446,3.033-9.675,4.559
		c2.604,1.941,5.172,3.877,7.752,5.815C249.151,159.457,252.171,158.794,255.194,158.128z"/>
	<path d="M167.015,167.015c-5.101,0.195-10.207,0.395-15.36,0.623c0.908,5.072,1.834,10.092,2.762,15.106
		c4.069-1.088,8.115-2.153,12.154-3.211C166.711,175.374,166.854,171.208,167.015,167.015z"/>
	<path d="M416.646,129.54c56.223-7.33,108.69-11.215,157.517-12.05c55.945-50.145,136.531-86.868,242.844-97.402
		C683.54,6.863,509.53,34.92,292.825,129.54H398.09H416.646z"/>
	<path d="M200.85,145.612c-4.679-2.012-9.363-4.023-14.102-6.028c-1.362,4.971-2.685,9.905-4.003,14.834
		c4.11,0.761,8.189,1.532,12.261,2.306C196.939,153.028,198.88,149.328,200.85,145.612z"/>
	<path d="M182.744,154.417c-5.015-0.928-10.035-1.855-15.107-2.763c-0.228,5.153-0.427,10.259-0.623,15.36
		c4.193-0.161,8.359-0.304,12.518-0.443C180.591,162.532,181.656,158.486,182.744,154.417z"/>
	<path d="M1466.999,167.015c-0.195-5.101-0.395-10.208-0.623-15.36c-5.072,0.908-10.092,1.834-15.107,2.763
		c1.089,4.069,2.153,8.115,3.212,12.155C1458.64,166.711,1462.806,166.854,1466.999,167.015z"/>
	<path d="M1451.27,154.417c-1.318-4.929-2.641-9.862-4.003-14.834c-4.739,2.005-9.423,4.016-14.102,6.028
		c1.97,3.717,3.911,7.416,5.845,11.112C1443.08,155.949,1447.161,155.178,1451.27,154.417z"/>
	<path d="M1217.367,129.54h18.557h105.265C1124.484,34.92,950.474,6.863,817.007,20.088
		c106.313,10.534,186.898,47.257,242.844,97.402C1108.678,118.325,1161.145,122.209,1217.367,129.54z"/>
	<path d="M1387.904,160.14c2.58-1.938,5.147-3.874,7.752-5.815c-3.229-1.526-6.464-3.061-9.675-4.559
		c-2.395,2.79-4.795,5.583-7.161,8.362C1381.843,158.794,1384.863,159.457,1387.904,160.14z"/>
	<path d="M1433.164,145.612c-2.385-4.501-4.776-9.005-7.214-13.538c-10.281,7.439-20.371,14.855-30.294,22.251
		c2.812,1.329,5.618,2.649,8.444,4C1413.661,154.073,1423.342,149.835,1433.164,145.612z"/>
	<path d="M273.769,588.11c-13.153-29.57-25.805-61.139-37.871-94.788c-18.17,6.549-35.946,15.119-53.023,25.725
		c7.535,51.062,17.302,97.951,28.955,140.883C230.624,631.745,251.495,607.875,273.769,588.11z"/>
	<path d="M1362.8,177.138c1.596-1.911,3.198-3.824,4.808-5.741c-84.393,18.705-159.797,40.439-226.912,64.511
		c6.363,17.659,10.818,35.684,13.398,53.793C1214.828,251.583,1284.131,213.893,1362.8,177.138z"/>
	<path d="M991.63,409.311c28.703-25.184,60.712-50.409,96.258-75.537c-11.072-20.738-25.012-40.878-41.969-59.989
		c-45.789,20.374-86.791,41.944-123.328,64.39C950.151,360.759,973.061,384.656,991.63,409.311z"/>
	<path d="M1357.907,183.026c3.907-3.029,7.844-6.061,11.81-9.097c-2.308,1.07-4.625,2.138-6.917,3.209
		C1361.158,179.105,1359.535,181.064,1357.907,183.026z"/>
	<path d="M642.384,409.311c18.578-24.666,41.5-48.574,69.076-71.166c-36.546-22.442-77.555-44.008-123.35-64.377
		c-16.963,19.116-30.909,39.262-41.984,60.005C581.672,358.902,613.68,384.128,642.384,409.311z"/>
	<path d="M922.591,338.176c-29.646-24.292-64.685-47.06-105.584-67.588c-40.883,20.52-75.909,43.277-105.548,67.558
		c40.544,24.897,75.606,50.865,105.61,77.47C847.048,389.022,882.082,363.063,922.591,338.176z"/>
	<path d="M1344.313,479.92c18.109,2.58,36.134,7.035,53.793,13.398c24.073-67.115,45.807-142.519,64.511-226.911
		c-1.916,1.609-3.83,3.212-5.741,4.807C1420.121,349.884,1382.431,419.186,1344.313,479.92z"/>
	<path d="M1154.257,363.302c-4.662,33.375-15.805,65.661-33.288,94.965c0.306,14.158-0.521,28.21-2.434,42.034
		c10.449-5.262,21.016-10.763,31.706-16.528c49.351-91.532,117.329-191.891,207.666-300.747
		C1278.062,244.914,1210.637,305.159,1154.257,363.302z"/>
	<path d="M1224.703,642.384c24.655,18.57,48.552,41.479,71.135,69.039c22.447-36.537,44.017-77.539,64.391-123.328
		c-19.111-16.957-39.251-30.897-59.989-41.969C1275.113,581.672,1249.887,613.681,1224.703,642.384z"/>
	<path d="M1460.086,264.297c-3.036,3.967-6.068,7.903-9.097,11.81c1.962-1.628,3.922-3.251,5.888-4.893
		C1457.948,268.922,1459.016,266.605,1460.086,264.297z"/>
	<path d="M1175.748,513.045c29.305-17.483,61.591-28.627,94.965-33.288c58.142-56.381,118.388-123.806,180.275-203.65
		c-108.857,90.337-209.215,158.315-300.747,207.665c-5.764,10.691-11.265,21.257-16.527,31.707
		C1147.538,513.567,1161.589,512.74,1175.748,513.045z"/>
	<path d="M409.311,991.63c-24.656-18.57-48.552-41.479-71.136-69.039c-22.446,36.537-44.017,77.539-64.39,123.328
		c19.111,16.957,39.251,30.897,59.989,41.969C358.902,1052.342,384.127,1020.333,409.311,991.63z"/>
	<path d="M1295.838,922.591c24.293-29.646,47.06-64.685,67.588-105.584c-20.529-40.899-43.296-75.938-67.588-105.584
		c-24.905,40.538-50.882,75.592-77.495,105.584C1244.956,846.999,1270.934,882.053,1295.838,922.591z"/>
	<path d="M338.146,711.46c-24.281,29.638-47.038,64.665-67.558,105.547c20.529,40.899,43.296,75.938,67.588,105.584
		c24.888-40.51,50.846-75.543,77.44-105.521C389.011,787.066,363.042,752.003,338.146,711.46z"/>
	<path d="M409.311,642.384c-25.184-28.703-50.41-60.712-75.537-96.258c-20.744,11.075-40.89,25.02-60.006,41.984
		c20.369,45.794,41.935,86.804,64.376,123.35C360.738,683.884,384.645,660.962,409.311,642.384z"/>
	<path d="M173.928,1369.717c3.036-3.967,6.068-7.903,9.097-11.81c-1.961,1.628-3.921,3.251-5.888,4.893
		C176.067,1365.093,174.998,1367.409,173.928,1369.717z"/>
	<path d="M289.701,1154.094c-18.109-2.581-36.134-7.035-53.793-13.398c-24.072,67.115-45.807,142.519-64.511,226.911
		c1.916-1.609,3.83-3.212,5.74-4.807C213.893,1284.131,251.583,1214.828,289.701,1154.094z"/>
	<path d="M513.045,458.267c-17.483-29.304-28.626-61.591-33.287-94.965c-56.381-58.142-123.806-118.388-203.651-180.276
		c90.337,108.856,158.315,209.215,207.665,300.747c10.692,5.764,21.257,11.266,31.707,16.528
		C513.566,486.477,512.739,472.425,513.045,458.267z"/>
	<path d="M264.297,173.929c3.967,3.036,7.903,6.068,11.81,9.097c-1.628-1.961-3.251-3.921-4.893-5.888
		C268.922,176.067,266.605,174.998,264.297,173.929z"/>
	<path d="M183.025,276.107c-3.029-3.907-6.061-7.843-9.097-11.81c1.07,2.308,2.138,4.625,3.209,6.917
		C179.104,272.856,181.064,274.479,183.025,276.107z"/>
	<path d="M363.302,479.758c33.374,4.661,65.661,15.805,94.965,33.288c14.159-0.306,28.21,0.521,42.034,2.434
		c-5.262-10.45-10.764-21.016-16.528-31.707c-91.532-49.351-191.89-117.329-300.747-207.666
		C244.914,355.952,305.159,423.377,363.302,479.758z"/>
	<path d="M177.137,271.214c-1.911-1.596-3.825-3.199-5.741-4.808c18.702,84.39,40.434,159.796,64.502,226.916
		c17.662-6.365,35.691-10.821,53.803-13.402C251.583,419.186,213.893,349.883,177.137,271.214z"/>
	<path d="M479.92,289.701c2.581-18.112,7.037-36.141,13.402-53.803c-67.121-24.068-142.527-45.799-226.916-64.502
		c1.61,1.916,3.212,3.83,4.808,5.742C349.883,213.893,419.186,251.583,479.92,289.701z"/>
	<path d="M1098.843,1049.906c-2.074,0.427-4.146,0.829-6.217,1.206c10.338,20.265,17.967,41.853,22.7,64.214
		c6.075,1.286,12.209,2.354,18.387,3.208c-10.149-20.152-19.375-39.855-27.723-59.104
		C1103.552,1056.329,1101.17,1053.152,1098.843,1049.906z"/>
	<path d="M535.171,1049.906c-2.326,3.246-4.709,6.423-7.148,9.524c-8.347,19.25-17.574,38.952-27.723,59.105
		c6.178-0.855,12.312-1.922,18.387-3.208c4.733-22.362,12.363-43.949,22.7-64.214
		C539.317,1050.735,537.245,1050.332,535.171,1049.906z"/>
	<path d="M333.775,1087.888c-14.735,20.844-29.436,42.885-44.073,66.207c24.625,3.509,49.397,3.542,73.6,0.162
		c14.3-13.867,28.473-27.066,42.511-39.618C381.451,1109.25,357.231,1100.411,333.775,1087.888z"/>
	<path d="M528.023,1059.43c1.468-3.385,2.913-6.757,4.326-10.114c-11.365-2.458-22.761-5.661-34.142-9.626
		c-30.071,21.878-60.895,46.784-92.394,74.948c17.49,3.868,35.05,5.954,52.454,6.33
		C484.322,1105.424,508.015,1084.871,528.023,1059.43z"/>
	<path d="M594.324,1135.807c-3.965-11.381-7.168-22.778-9.626-34.142c-3.357,1.414-6.73,2.858-10.114,4.326
		c-25.441,20.008-45.994,43.702-61.539,69.757c0.376,17.404,2.462,34.964,6.331,52.454
		C547.54,1196.702,572.446,1165.878,594.324,1135.807z"/>
	<path d="M584.108,1098.843c-0.426-2.074-0.829-4.146-1.206-6.217c-20.265,10.338-41.852,17.967-64.214,22.7
		c-1.286,6.076-2.354,12.209-3.208,18.387c20.152-10.148,39.855-19.376,59.105-27.723
		C577.685,1103.552,580.862,1101.17,584.108,1098.843z"/>
	<path d="M498.207,594.324c11.381-3.965,22.777-7.168,34.142-9.626c-1.414-3.357-2.858-6.73-4.326-10.114
		c-20.008-25.441-43.702-45.993-69.757-61.538c-17.404,0.376-34.963,2.462-52.454,6.331
		C437.313,547.539,468.136,572.446,498.207,594.324z"/>
	<path d="M549.946,629.508c-16.98-10.731-34.233-22.448-51.739-35.185c-30.054,10.471-59.992,26.29-88.896,48.06
		c31.954,36.419,63.836,67.524,95.357,93.765c22.26-15.783,44.615-28.575,66.831-38.597
		C565.618,675.619,558.463,652.936,549.946,629.508z"/>
	<path d="M479.758,1270.713c-3.38,24.203-3.347,48.975,0.162,73.6c23.322-14.638,45.363-29.338,66.207-44.073
		c-12.524-23.457-21.362-47.677-26.751-72.039C506.825,1242.24,493.624,1256.413,479.758,1270.713z"/>
	<path d="M363.302,479.758c-24.203-3.38-48.975-3.347-73.6,0.162c14.638,23.322,29.338,45.363,44.073,66.207
		c23.456-12.523,47.677-21.362,72.038-26.75C391.774,506.824,377.602,493.625,363.302,479.758z"/>
	<path d="M549.946,1004.506c8.494-23.361,15.631-45.981,21.503-67.856c-22.237-10.047-44.614-22.87-66.894-38.69
		c-31.484,26.221-63.329,57.295-95.244,93.671c28.904,21.77,58.841,37.589,88.896,48.06
		C515.713,1026.954,532.966,1015.237,549.946,1004.506z"/>
	<path d="M592.045,817.007c-0.45-6.743-1.044-13.587-1.775-20.522c-28.079-16.262-56.689-36.266-85.601-60.336
		c-30.054,21.311-59.932,48.093-89.053,80.921c29.084,32.801,58.922,59.576,88.939,80.89c28.951-24.112,57.6-44.146,85.715-60.43
		C591.001,830.594,591.595,823.75,592.045,817.007z"/>
	<path d="M1135.807,1039.691c-11.381,3.965-22.777,7.168-34.142,9.626c1.414,3.357,2.858,6.729,4.326,10.114
		c20.008,25.441,43.702,45.994,69.757,61.538c17.404-0.376,34.964-2.462,52.454-6.33
		C1196.702,1086.475,1165.878,1061.568,1135.807,1039.691z"/>
	<path d="M1049.906,1098.843c3.246,2.327,6.423,4.709,9.525,7.148c19.25,8.347,38.952,17.575,59.104,27.723
		c-0.855-6.179-1.923-12.312-3.208-18.387c-22.362-4.733-43.949-12.363-64.214-22.7
		C1050.735,1094.697,1050.332,1096.769,1049.906,1098.843z"/>
	<path d="M1129.345,897.865c-22.26,15.783-44.615,28.575-66.831,38.596c5.882,21.933,13.036,44.616,21.554,68.044
		c16.981,10.731,34.232,22.448,51.739,35.185c30.054-10.471,59.993-26.29,88.896-48.06
		C1192.749,955.211,1160.867,924.107,1129.345,897.865z"/>
	<path d="M1270.713,1154.256c24.203,3.38,48.975,3.347,73.6-0.162c-14.638-23.322-29.338-45.363-44.073-66.207
		c-23.457,12.523-47.677,21.362-72.039,26.75C1242.24,1127.19,1256.413,1140.39,1270.713,1154.256z"/>
	<path d="M817.007,1041.969c-6.743,0.449-13.587,1.044-20.523,1.775c-16.262,28.079-36.266,56.689-60.336,85.601
		c21.297,30.036,48.059,59.894,80.859,88.998c32.799-29.104,59.561-58.962,80.858-88.998
		c-24.069-28.913-44.074-57.522-60.336-85.601C830.594,1043.013,823.75,1042.419,817.007,1041.969z"/>
	<path d="M629.509,1084.068c-10.732,16.98-22.448,34.232-35.185,51.739c10.472,30.054,26.29,59.992,48.06,88.896
		c36.419-31.954,67.524-63.836,93.765-95.358c-15.783-22.259-28.575-44.615-38.597-66.831
		C675.619,1068.396,652.936,1075.551,629.509,1084.068z"/>
	<path d="M1087.888,1300.24c20.843,14.735,42.885,29.435,66.206,44.073c3.509-24.625,3.542-49.397,0.162-73.6
		c-13.867-14.3-27.067-28.473-39.618-42.511C1109.25,1252.563,1100.411,1276.783,1087.888,1300.24z"/>
	<path d="M1004.506,1084.068c-23.428-8.518-46.11-15.672-68.044-21.554c-10.021,22.216-22.814,44.572-38.597,66.831
		c26.241,31.522,57.346,63.404,93.765,95.358c21.77-28.904,37.589-58.842,48.06-88.896
		C1026.953,1118.301,1015.237,1101.049,1004.506,1084.068z"/>
	<path d="M1059.431,1105.991c-3.385-1.468-6.757-2.912-10.115-4.326c-2.458,11.365-5.66,22.761-9.625,34.142
		c21.878,30.071,46.784,60.894,74.948,92.394c3.868-17.49,5.954-35.05,6.33-52.454
		C1105.424,1149.693,1084.871,1125.999,1059.431,1105.991z"/>
	<path d="M273.786,1045.919c-22.28-19.768-43.157-43.643-61.955-71.835c-11.653,42.932-21.42,89.821-28.955,140.883
		c17.08,10.609,34.86,19.18,53.033,25.729C247.977,1107.05,260.631,1075.485,273.786,1045.919z"/>
	<path d="M211.83,659.93c-28.235,42.343-51.774,94.439-68.298,157.077c16.524,62.638,40.063,114.734,68.298,157.077
		c16.243-59.844,36.14-112.016,58.757-157.077C247.97,771.946,228.073,719.775,211.83,659.93z"/>
	<path d="M458.267,1120.969c-29.304,17.483-61.591,28.626-94.965,33.288c-58.143,56.381-118.388,123.806-180.276,203.651
		c108.857-90.337,209.215-158.315,300.747-207.665c5.764-10.691,11.266-21.257,16.528-31.707
		C486.477,1120.448,472.425,1121.274,458.267,1120.969z"/>
	<path d="M171.397,1367.607c-2.055,1.726-4.117,3.471-6.178,5.213c-0.003,2.76,0.006,5.537,0.013,8.314
		c1.495-1.976,2.987-3.935,4.48-5.896C170.269,1372.681,170.834,1370.148,171.397,1367.607z"/>
	<path d="M238.154,1468.696c2.397,0.021,4.813,0.054,7.198,0.069c2.201-0.997,4.396-1.994,6.583-2.992
		C247.365,1466.755,242.777,1467.732,238.154,1468.696z"/>
	<path d="M266.406,171.396c-1.726-2.055-3.47-4.117-5.212-6.177c-2.759-0.003-5.537,0.006-8.314,0.013
		c1.976,1.494,3.934,2.986,5.895,4.479C261.332,170.268,263.865,170.833,266.406,171.396z"/>
	<path d="M588.11,273.769c19.766-22.274,43.635-43.144,71.82-61.939c-42.932-11.653-89.821-21.42-140.883-28.955
		c-10.606,17.077-19.177,34.853-25.725,53.023C526.971,247.964,558.539,260.616,588.11,273.769z"/>
	<path d="M165.318,238.156c-0.021,2.397-0.054,4.812-0.069,7.197c0.996,2.2,1.993,4.394,2.991,6.58
		C167.258,247.364,166.282,242.777,165.318,238.156z"/>
	<path d="M169.71,258.775c-1.493-1.961-2.985-3.92-4.479-5.895c-0.007,2.776-0.016,5.554-0.013,8.314
		c2.061,1.742,4.123,3.486,6.178,5.212C170.833,263.865,170.268,261.332,169.71,258.775z"/>
	<path d="M245.353,165.249c-2.384,0.014-4.799,0.047-7.196,0.069c4.621,0.964,9.207,1.94,13.775,2.922
		C249.747,167.243,247.552,166.246,245.353,165.249z"/>
	<path d="M1464.303,1375.238c1.493,1.962,2.985,3.92,4.48,5.896c0.007-2.776,0.016-5.554,0.013-8.314
		c-2.061-1.742-4.123-3.487-6.178-5.213C1463.18,1370.148,1463.745,1372.681,1464.303,1375.238z"/>
	<path d="M1388.662,1468.765c2.385-0.014,4.8-0.047,7.198-0.069c-4.622-0.965-9.21-1.941-13.781-2.923
		C1384.266,1466.771,1386.461,1467.768,1388.662,1468.765z"/>
	<path d="M1468.696,1395.859c0.021-2.397,0.054-4.812,0.069-7.197c-0.997-2.2-1.994-4.395-2.992-6.582
		C1466.755,1386.65,1467.732,1391.237,1468.696,1395.859z"/>
	<path d="M1504.474,882.636V751.379c-3.846,23.041-8.53,44.919-13.993,65.628C1495.945,837.717,1500.629,859.595,1504.474,882.636z"
		/>
	<path d="M1360.229,1045.919c13.155,29.566,25.809,61.13,37.877,94.777c18.174-6.549,35.953-15.121,53.033-25.729
		c-7.535-51.062-17.302-97.951-28.955-140.883C1403.385,1002.276,1382.509,1026.151,1360.229,1045.919z"/>
	<path d="M588.095,1360.229c-29.566,13.155-61.13,25.809-94.776,37.877c6.549,18.174,15.12,35.953,25.729,53.033
		c51.062-7.535,97.951-17.302,140.883-28.955C631.738,1403.385,607.864,1382.508,588.095,1360.229z"/>
	<path d="M258.776,1464.303c-1.961,1.493-3.92,2.985-5.896,4.48c2.776,0.007,5.554,0.016,8.314,0.013
		c1.742-2.061,3.487-4.123,5.213-6.178C263.866,1463.18,261.333,1463.746,258.776,1464.303z"/>
	<path d="M1367.608,1462.617c1.726,2.055,3.471,4.117,5.212,6.178c2.76,0.003,5.537-0.006,8.314-0.013
		c-1.976-1.495-3.935-2.987-5.896-4.48C1372.681,1463.746,1370.148,1463.18,1367.608,1462.617z"/>
	<path d="M659.93,1422.184c42.343,28.234,94.439,51.774,157.077,68.298c62.638-16.524,114.733-40.063,157.076-68.298
		c-59.844-16.243-112.016-36.14-157.076-58.757C771.946,1386.044,719.775,1405.941,659.93,1422.184z"/>
	<path d="M1045.919,1360.229c-19.769,22.28-43.643,43.157-71.835,61.955c42.933,11.653,89.821,21.42,140.883,28.955
		c10.609-17.08,19.18-34.86,25.73-53.033C1107.05,1386.038,1075.485,1373.384,1045.919,1360.229z"/>
	<path d="M165.249,1388.662c0.014,2.385,0.047,4.801,0.069,7.198c0.965-4.622,1.941-9.21,2.923-13.781
		C167.243,1384.266,166.246,1386.461,165.249,1388.662z"/>
	<path d="M1154.094,1344.313c-2.58,18.109-7.035,36.134-13.398,53.793c67.115,24.072,142.519,45.807,226.912,64.511
		c-1.61-1.916-3.212-3.83-4.808-5.74C1284.131,1420.121,1214.828,1382.431,1154.094,1344.313z"/>
	<path d="M1369.717,1460.086c-3.966-3.036-7.902-6.068-11.809-9.097c1.627,1.961,3.251,3.921,4.893,5.888
		C1365.093,1457.948,1367.409,1459.016,1369.717,1460.086z"/>
	<path d="M991.63,1224.703c-18.57,24.655-41.479,48.552-69.039,71.135c36.537,22.446,77.539,44.017,123.328,64.39
		c16.957-19.111,30.896-39.251,41.969-59.988C1052.342,1275.113,1020.333,1249.887,991.63,1224.703z"/>
	<path d="M1270.713,1154.256c-33.375-4.661-65.661-15.804-94.965-33.288c-14.159,0.306-28.21-0.521-42.034-2.434
		c5.262,10.45,10.764,21.016,16.528,31.707c91.532,49.351,191.89,117.329,300.747,207.666
		C1389.101,1278.062,1328.855,1210.637,1270.713,1154.256z"/>
	<path d="M1120.969,1175.748c17.483,29.304,28.626,61.591,33.288,94.965c56.38,58.142,123.806,118.388,203.651,180.276
		c-90.337-108.857-158.315-209.215-207.666-300.747c-10.691-5.764-21.257-11.266-31.707-16.528
		C1120.448,1147.538,1121.274,1161.589,1120.969,1175.748z"/>
	<path d="M276.107,1450.989c-3.907,3.029-7.843,6.061-11.81,9.097c2.308-1.07,4.624-2.138,6.917-3.209
		C272.856,1454.91,274.479,1452.95,276.107,1450.989z"/>
	<path d="M479.758,1270.713c4.661-33.374,15.804-65.661,33.287-94.965c-0.305-14.159,0.521-28.21,2.434-42.034
		c-10.45,5.262-21.016,10.764-31.707,16.528c-49.35,91.532-117.329,191.89-207.665,300.747
		C355.952,1389.101,423.377,1328.855,479.758,1270.713z"/>
	<path d="M711.422,1295.838c29.647,24.293,64.685,47.06,105.585,67.588c40.899-20.529,75.938-43.296,105.584-67.588
		c-40.538-24.905-75.592-50.882-105.584-77.495C787.015,1244.956,751.961,1270.934,711.422,1295.838z"/>
	<path d="M642.384,1224.703c-28.703,25.183-60.711,50.409-96.257,75.537c11.071,20.737,25.012,40.878,41.968,59.988
		c45.789-20.373,86.791-41.944,123.328-64.39C683.863,1273.255,660.954,1249.358,642.384,1224.703z"/>
	<path d="M271.214,1456.877c-1.595,1.911-3.198,3.824-4.807,5.74c84.392-18.705,159.797-40.439,226.912-64.511
		c-6.364-17.658-10.818-35.684-13.399-53.793C419.186,1382.431,349.883,1420.121,271.214,1456.877z"/>
	<path d="M1395.859,165.318c-2.397-0.021-4.812-0.055-7.197-0.069c-2.201,0.997-4.396,1.994-6.582,2.992
		C1386.65,167.259,1391.237,166.283,1395.859,165.318z"/>
	<path d="M1468.765,245.353c-0.015-2.385-0.047-4.8-0.069-7.197c-0.965,4.622-1.941,9.209-2.923,13.779
		C1466.771,249.748,1467.768,247.553,1468.765,245.353z"/>
	<path d="M1045.919,273.786c29.566-13.155,61.13-25.809,94.777-37.877c-6.55-18.174-15.121-35.953-25.73-53.033
		c-51.062,7.535-97.95,17.302-140.882,28.955C1002.277,230.629,1026.151,251.506,1045.919,273.786z"/>
	<path d="M974.085,211.83c-42.343-28.235-94.439-51.774-157.077-68.298c-62.639,16.523-114.734,40.063-157.077,68.298
		c59.845,16.243,112.016,36.14,157.077,58.757C862.068,247.97,914.24,228.074,974.085,211.83z"/>
	<path d="M1450.989,1357.907c3.029,3.907,6.061,7.843,9.097,11.81c-1.07-2.308-2.138-4.625-3.21-6.917
		C1454.91,1361.158,1452.95,1359.535,1450.989,1357.907z"/>
	<path d="M1375.239,169.711c1.961-1.493,3.92-2.985,5.896-4.479c-2.777-0.007-5.554-0.016-8.314-0.013
		c-1.742,2.061-3.487,4.123-5.212,6.178C1370.148,170.834,1372.681,170.268,1375.239,169.711z"/>
	<path d="M1462.617,266.407c2.055-1.726,4.117-3.471,6.178-5.213c0.003-2.759-0.006-5.538-0.013-8.314
		c-1.495,1.976-2.986,3.935-4.48,5.896C1463.745,261.333,1463.18,263.866,1462.617,266.407z"/>
	<path d="M1456.876,1362.8c1.911,1.595,3.825,3.198,5.741,4.807c-18.705-84.392-40.439-159.797-64.511-226.911
		c-17.658,6.363-35.684,10.818-53.793,13.398C1382.431,1214.828,1420.121,1284.131,1456.876,1362.8z"/>
	<path d="M1224.703,991.63c25.183,28.703,50.409,60.712,75.537,96.257c20.737-11.072,40.878-25.012,59.989-41.969
		c-20.374-45.789-41.944-86.791-64.391-123.328C1273.256,950.151,1249.358,973.061,1224.703,991.63z"/>
	<path d="M1360.229,588.095c22.28,19.768,43.156,43.643,61.955,71.835c11.653-42.932,21.42-89.821,28.955-140.883
		c-17.08-10.608-34.86-19.18-53.033-25.729C1386.038,526.964,1373.384,558.529,1360.229,588.095z"/>
	<path d="M1422.184,974.084c28.235-42.343,51.774-94.439,68.298-157.077c-16.524-62.638-40.063-114.734-68.298-157.077
		c-16.244,59.845-36.14,112.016-58.757,157.077C1386.044,862.068,1405.94,914.24,1422.184,974.084z"/>
</g>
</svg>
