<?xml version="1.0" encoding="utf-8"?>

<!DOCTYPE svg PUBLIC "-//W3C//DTD SVG 1.1//EN" "http://www.w3.org/Graphics/SVG/1.1/DTD/svg11.dtd">
<svg version="1.1" id="Layer_1" xmlns="http://www.w3.org/2000/svg" xmlns:xlink="http://www.w3.org/1999/xlink" x="0px" y="0px"
	 viewBox="0 0 1857.088 1631.957" enable-background="new 0 0 1857.088 1631.957" xml:space="preserve">
<g>
	<path d="M957.854,442.962c48.872-366.904-107.759-366.914-58.757,0.088C896.936,287.69,959.948,287.674,957.854,442.962z"/>
	<path d="M1267.144,658.049c341.829-137.881,265.896-270.314-22.676-53.049C1372.838,531.49,1401.509,584.605,1267.144,658.049z"/>
	<path d="M1615.986,833.555c-15.488,0-30.768-0.082-45.887-0.227c84.477,3.84,174.003,5.927,268.806,5.927v-46.554
		c-94.798,0-184.319,2.087-268.791,5.926c15.113-0.145,30.388-0.227,45.872-0.227V833.555z"/>
	<path d="M1287.442,229.398c-5.551,9.595-11.086,19.065-16.609,28.456c43.539-68.002,87.922-140.775,132.99-218.668l-40.197-23.208
		c-47.744,82.516-90.949,161.501-130.015,236.965c7.666-13.564,15.477-27.243,23.477-41.07L1287.442,229.398z"/>
	<path d="M589.944,973.908c-341.829,137.881-265.896,270.314,22.677,53.048C484.251,1100.467,455.579,1047.352,589.944,973.908z"/>
	<path d="M600,211.874c8.024,13.869,15.859,27.589,23.547,41.194C584.461,177.567,541.232,98.54,493.462,15.978l-40.197,23.208
		c45.068,77.892,89.45,150.664,132.989,218.665c-5.523-9.39-11.057-18.859-16.607-28.452L600,211.874z"/>
	<path d="M1244.476,1026.948c288.568,217.253,364.504,84.823,22.669-53.051C1401.514,1047.338,1372.843,1100.452,1244.476,1026.948z
		"/>
	<path d="M899.234,1188.994c-48.872,366.904,107.759,366.914,58.757-0.087C960.152,1344.266,897.14,1344.282,899.234,1188.994z"/>
	<path d="M1570.099,833.329c-87.951-3.998-170.417-9.9-247.599-17.349c77.186-7.451,159.657-13.353,247.615-17.351
		c-106.491,1.018-203.842,5.559-292.544,12.773c-82.918-8.879-159.464-19.55-229.914-31.533
		c18.721-18.998,36.986-36.887,54.778-53.734c70.413-22.63,124.771-46.255,164.71-68.086
		c-42.193,17.019-90.762,34.119-146.07,50.656c44.45-41.035,85.732-75.349,123.395-103.705
		c-40.703,23.309-91.431,59.355-150.161,111.516c-24.178,6.877-49.581,13.634-76.201,20.227
		c25.68-70.345,56.001-145.783,91.651-226.332c51.895-74.655,105.772-158.529,161.076-252.556
		c-48.263,75.38-95.486,144.883-141.429,208.848c30.927-67.8,65.53-139.046,104.208-213.758
		c-50.191,88.806-93.299,171.994-130.213,249.561c-52.056,70.879-102.377,134.611-150.624,191.801
		c-6.649-23.624-12.691-46.465-18.149-68.498c16.048-75.074,22.597-136.016,23.229-182.845
		c-6.201,46.556-15.706,99.009-29.365,157.38c-13.664-58.335-23.178-110.758-29.391-157.292
		c0.651,46.809,7.217,107.712,23.268,182.726c-5.449,22.018-11.481,44.84-18.118,68.445
		c-48.218-57.158-98.506-120.849-150.526-191.677c-36.907-77.541-80.003-160.701-130.174-249.476
		c38.67,74.696,73.268,145.925,104.193,213.71c-45.962-63.986-93.204-133.516-141.487-208.927
		c55.329,94.07,109.23,177.978,161.146,252.658c35.643,80.521,65.963,155.934,91.646,226.256
		c-26.645-6.597-52.068-13.359-76.268-20.242c-58.738-52.165-109.469-88.212-150.176-111.519
		c37.665,28.356,78.951,62.671,123.405,103.708c-55.303-16.535-103.87-33.632-146.06-50.649
		c39.938,21.828,94.292,45.45,164.699,68.077c17.79,16.845,36.054,34.732,54.773,53.727
		c-70.449,11.983-146.992,22.654-229.907,31.533c-88.698-7.213-186.044-11.754-292.528-12.772
		c87.954,3.998,170.421,9.9,247.604,17.35c-77.185,7.451-159.654,13.353-247.611,17.351c106.489-1.018,203.838-5.559,292.539-12.773
		c82.918,8.879,159.463,19.551,229.915,31.533c-18.721,18.998-36.986,36.887-54.778,53.733
		c-70.413,22.63-124.771,46.255-164.71,68.086c42.193-17.019,90.762-34.119,146.07-50.656
		c-44.45,41.034-85.732,75.349-123.393,103.704c40.703-23.309,91.429-59.354,150.159-111.515
		c24.179-6.877,49.581-13.634,76.202-20.227c-25.681,70.345-56.002,145.784-91.651,226.332
		c-51.894,74.655-105.771,158.529-161.075,252.556c48.263-75.38,95.485-144.883,141.428-208.847
		c-30.927,67.8-65.53,139.045-104.206,213.757c50.19-88.805,93.298-171.993,130.212-249.56
		c52.056-70.879,102.376-134.611,150.624-191.801c6.649,23.623,12.691,46.464,18.149,68.498
		c-16.048,75.074-22.597,136.016-23.229,182.845c6.201-46.556,15.706-99.009,29.365-157.38
		c13.664,58.335,23.178,110.759,29.391,157.292c-0.651-46.809-7.217-107.712-23.268-182.726
		c5.449-22.017,11.48-44.839,18.118-68.444c48.218,57.158,98.507,120.85,150.528,191.68
		c36.906,77.54,80.002,160.698,130.172,249.472c-38.669-74.695-73.267-145.923-104.191-213.707
		c45.962,63.987,93.206,133.519,141.49,208.932c-55.33-94.073-109.233-177.984-161.151-252.666
		c-35.643-80.521-65.963-155.934-91.645-226.256c26.645,6.598,52.069,13.359,76.268,20.242
		c58.733,52.161,109.461,88.206,150.165,111.514c-37.663-28.355-78.946-62.669-123.397-103.703
		c55.306,16.536,103.875,33.634,146.066,50.652c-39.938-21.829-94.295-45.452-164.705-68.08
		c-17.79-16.844-36.053-34.731-54.773-53.726c70.45-11.983,146.994-22.654,229.909-31.534
		C1366.273,827.77,1463.617,832.31,1570.099,833.329z M1073.929,734.973c-14.134,13.049-28.694,27.001-43.651,41.893
		c-8.404-1.476-16.713-2.971-24.94-4.484c2.371-6.745,4.78-13.533,7.239-20.376C1034.143,746.452,1054.58,740.759,1073.929,734.973z
		 M966.048,844.134c-3.149,3.458-6.307,6.943-9.483,10.479c-9.501,1.876-18.84,3.783-28.011,5.718
		c-9.181-1.938-18.53-3.846-28.042-5.724c-3.141-3.497-6.266-6.946-9.38-10.367c-2.967-9.304-6.058-18.755-9.263-28.34
		c3.173-9.494,6.233-18.859,9.171-28.077c3.148-3.458,6.307-6.943,9.483-10.479c9.501-1.876,18.84-3.783,28.011-5.718
		c9.181,1.938,18.53,3.846,28.042,5.724c3.141,3.497,6.266,6.946,9.38,10.367c2.967,9.303,6.058,18.755,9.263,28.34
		C972.046,825.551,968.985,834.916,966.048,844.134z M981.321,782.094c1.732,0.322,3.47,0.643,5.213,0.963
		c-0.401,1.141-0.807,2.288-1.205,3.426C983.997,785.032,982.657,783.556,981.321,782.094z M974.284,766.513
		c-0.494-1.575-1-3.164-1.489-4.732c7.933-1.859,15.72-3.739,23.38-5.636c-1.668,4.569-3.307,9.107-4.924,13.619
		C985.552,768.688,979.898,767.604,974.284,766.513z M953.99,751.747c-5.163-5.819-10.361-11.738-15.577-17.712
		c2.8-3.283,5.609-6.594,8.428-9.936c2.534,9.003,5.187,18.161,7.962,27.47C954.534,751.629,954.26,751.688,953.99,751.747z
		 M937.14,755.41c-2.859,0.613-5.724,1.225-8.608,1.834c-2.876-0.607-5.732-1.217-8.583-1.828c2.856-3.265,5.722-6.563,8.598-9.891
		C931.421,748.851,934.286,752.147,937.14,755.41z M903.099,751.753c-0.291-0.064-0.586-0.128-0.876-0.192
		c2.779-9.329,5.436-18.505,7.973-27.527c2.838,3.364,5.666,6.698,8.485,10.002C913.463,740.012,908.264,745.933,903.099,751.753z
		 M882.723,766.524c-5.574,1.084-11.187,2.16-16.847,3.227c-1.614-4.502-3.25-9.03-4.915-13.589
		c7.621,1.887,15.366,3.757,23.257,5.606C883.727,763.344,883.22,764.94,882.723,766.524z M875.779,782.088
		c-1.328,1.453-2.661,2.921-3.984,4.363c-0.396-1.131-0.799-2.271-1.198-3.406C872.329,782.728,874.057,782.409,875.779,782.088z
		 M860.815,798.351c-2.104,2.266-4.194,4.494-6.288,6.733c-5.359-5.576-10.671-11.031-15.937-16.375
		c6.004-1.021,11.952-2.054,17.839-3.1C857.906,789.874,859.372,794.126,860.815,798.351z M866.284,814.527
		c0.151,0.451,0.299,0.898,0.45,1.349c-0.168,0.503-0.334,1.002-0.502,1.506c-0.441-0.467-0.882-0.934-1.323-1.4
		C865.368,815.498,865.826,815.013,866.284,814.527z M860.764,833.561c-1.445,4.235-2.914,8.497-4.395,12.773
		c-5.865-1.042-11.79-2.071-17.771-3.088c5.262-5.34,10.571-10.792,15.926-16.364C856.603,829.104,858.677,831.313,860.764,833.561z
		 M871.758,845.475c1.331,1.451,2.672,2.927,4.007,4.388c-1.732-0.322-3.469-0.643-5.211-0.963
		C870.955,847.758,871.361,846.612,871.758,845.475z M882.804,865.444c0.494,1.575,1,3.164,1.489,4.732
		c-7.933,1.859-15.72,3.739-23.38,5.636c1.668-4.569,3.308-9.106,4.924-13.618C871.536,863.269,877.19,864.353,882.804,865.444z
		 M903.097,880.21c5.164,5.819,10.362,11.738,15.578,17.712c-2.8,3.282-5.609,6.593-8.428,9.935
		c-2.534-9.003-5.187-18.16-7.962-27.469C902.554,880.328,902.828,880.269,903.097,880.21z M919.948,876.547
		c2.86-0.613,5.724-1.225,8.608-1.833c2.876,0.607,5.732,1.217,8.583,1.828c-2.856,3.265-5.722,6.563-8.598,9.89
		C925.667,883.106,922.802,879.81,919.948,876.547z M953.989,880.204c0.291,0.064,0.586,0.128,0.876,0.192
		c-2.779,9.329-5.436,18.505-7.973,27.526c-2.838-3.364-5.666-6.697-8.485-10.001C943.625,891.944,948.824,886.024,953.989,880.204z
		 M974.365,865.433c5.574-1.084,11.187-2.16,16.847-3.227c1.614,4.502,3.251,9.03,4.916,13.589
		c-7.621-1.887-15.368-3.757-23.257-5.606C973.361,868.612,973.868,867.017,974.365,865.433z M981.309,849.868
		c1.328-1.453,2.661-2.921,3.984-4.363c0.396,1.131,0.8,2.271,1.198,3.405C984.76,849.229,983.031,849.548,981.309,849.868z
		 M996.273,833.606c2.104-2.266,4.194-4.494,6.288-6.733c5.359,5.576,10.671,11.031,15.937,16.375
		c-6.004,1.021-11.952,2.054-17.839,3.1C999.182,842.083,997.716,837.831,996.273,833.606z M990.804,817.429
		c-0.151-0.451-0.299-0.898-0.45-1.349c0.168-0.503,0.334-1.002,0.502-1.505c0.442,0.467,0.882,0.934,1.323,1.4
		C991.72,816.459,991.262,816.944,990.804,817.429z M996.323,798.396c1.446-4.236,2.914-8.498,4.395-12.774
		c5.865,1.042,11.791,2.071,17.771,3.088c-5.262,5.341-10.571,10.793-15.927,16.365
		C1000.484,802.854,998.411,800.644,996.323,798.396z M1080.22,552.228c-30.716,67.339-56.628,130.173-78.358,188.483
		c-10.86,2.612-21.919,5.196-33.179,7.749c-3.859-12.615-7.538-25.007-11.069-37.21
		C996.831,664.108,1037.806,611.279,1080.22,552.228z M928.502,653.143c4.036,17.232,8.562,35.159,13.594,53.754
		c-4.535,5.32-9.051,10.578-13.549,15.781c-4.517-5.226-9.052-10.508-13.608-15.851
		C919.959,688.258,924.474,670.354,928.502,653.143z M776.912,552.286c42.376,58.994,83.315,111.777,122.498,158.882
		c-3.534,12.226-7.217,24.641-11.081,37.28c-11.217-2.543-22.235-5.117-33.056-7.72
		C833.539,682.432,807.627,619.611,776.912,552.286z M783.155,734.978c19.37,5.791,39.829,11.491,61.422,17.05
		c2.455,6.831,4.861,13.607,7.229,20.339c-8.249,1.516-16.58,3.016-25.006,4.496C811.845,761.974,797.288,748.025,783.155,734.978z
		 M631.055,815.978c68.758-6.637,131.957-14.9,189.89-24.334c7.701,7.922,15.482,16.047,23.329,24.34
		c-7.843,8.289-15.62,16.41-23.318,24.328C763.02,830.877,699.818,822.615,631.055,815.978z M783.159,896.984
		c14.134-13.048,28.693-27.001,43.65-41.893c8.404,1.476,16.714,2.972,24.941,4.484c-2.371,6.744-4.78,13.533-7.239,20.376
		C822.945,885.504,802.508,891.198,783.159,896.984z M776.867,1079.729c30.717-67.339,56.628-130.174,78.358-188.483
		c10.86-2.612,21.919-5.196,33.179-7.749c3.859,12.614,7.539,25.007,11.069,37.21
		C860.257,967.849,819.282,1020.678,776.867,1079.729z M928.586,978.813c-4.036-17.231-8.562-35.159-13.594-53.754
		c4.535-5.319,9.051-10.577,13.548-15.78c4.517,5.226,9.053,10.508,13.609,15.851C937.129,943.699,932.614,961.603,928.586,978.813z
		 M1080.177,1079.671c-42.376-58.994-83.315-111.778-122.5-158.882c3.534-12.226,7.217-24.641,11.081-37.28
		c11.218,2.543,22.236,5.117,33.057,7.72C1023.55,949.525,1049.462,1012.346,1080.177,1079.671z M1073.934,896.979
		c-19.37-5.791-39.831-11.491-61.423-17.05c-2.455-6.831-4.861-13.606-7.228-20.339c8.249-1.517,16.579-3.016,25.006-4.496
		C1045.243,869.982,1059.801,883.932,1073.934,896.979z M1036.141,840.313c-7.7-7.922-15.482-16.046-23.328-24.339
		c7.843-8.29,15.621-16.41,23.318-24.329c57.937,9.435,121.139,17.697,189.901,24.334
		C1157.275,822.616,1094.076,830.878,1036.141,840.313z"/>
	<path d="M1257.088,1420.083c-8.024-13.869-15.859-27.589-23.547-41.194c39.087,75.501,82.316,154.527,130.086,237.089
		l40.197-23.208c-45.066-77.889-89.446-150.657-132.984-218.656c5.521,9.387,11.053,18.853,16.603,28.444L1257.088,1420.083z"/>
	<path d="M569.646,1402.558c5.551-9.595,11.086-19.065,16.609-28.456c-43.539,68.002-87.922,140.775-132.99,218.668l40.197,23.208
		c47.744-82.516,90.949-161.501,130.016-236.966c-7.667,13.565-15.477,27.244-23.478,41.07L569.646,1402.558z"/>
	<path d="M612.602,605.003c-288.563-217.245-364.493-84.815-22.655,53.059C455.577,584.621,484.242,531.506,612.602,605.003z"/>
	<path d="M241.102,798.401c15.487,0,30.765,0.082,45.882,0.227c-84.476-3.84-174-5.926-268.802-5.926v46.554
		c94.799,0,184.322-2.087,268.795-5.927c-15.114,0.145-30.391,0.227-45.876,0.227V798.401z"/>
</g>
</svg>
